<svg width="100" height="100" viewBox="0 0 100 100" fill="none" xmlns="http://www.w3.org/2000/svg">
<g clip-path="url(#clip0_428_247)">
<path d="M79.8024 51.7941C69.0788 49.772 59.4436 52.3603 55.2308 58.4875C53.9387 60.4642 53.2504 62.7766 53.2504 65.1404C53.2504 67.5042 53.9387 69.8165 55.2308 71.7933C54.1061 73.9951 53.1688 76.2883 52.4289 78.6484C52.3344 78.9648 52.3682 79.3059 52.523 79.5974C52.6777 79.889 52.9409 80.1075 53.2553 80.2055C53.3755 80.2248 53.498 80.2248 53.6182 80.2055C53.8859 80.2073 54.147 80.1214 54.3617 79.9608C54.5763 79.8002 54.7328 79.5737 54.8075 79.3157C55.4416 77.2861 56.2231 75.3059 57.1457 73.3908C57.22 73.5414 57.3246 73.6749 57.453 73.7828C57.5814 73.8907 57.7307 73.9707 57.8915 74.0177C59.5754 74.5118 61.3177 74.7771 63.0719 74.8063C70.5906 74.8063 72.6264 68.5781 74.3398 63.3811C75.65 59.3368 76.8998 55.5958 80.0846 54.1398C80.3272 54.0298 80.5284 53.8449 80.659 53.6121C80.7895 53.3793 80.8425 53.1108 80.8103 52.8457C80.7787 52.5845 80.6633 52.3406 80.4815 52.151C80.2997 51.9613 80.0613 51.8361 79.8024 51.7941V51.7941ZM71.9613 62.6329C69.8246 69.1443 68.1515 74.3008 58.5769 71.6315H58.2342H58.0729C58.8757 70.1534 59.7923 68.7403 60.8143 67.4052C63.1305 66.6301 65.6173 66.525 67.9903 67.1019C68.1492 67.1441 68.3149 67.1539 68.4776 67.1308C68.6404 67.1077 68.7968 67.0521 68.9378 66.9672C69.0787 66.8824 69.2013 66.7701 69.2982 66.6369C69.3951 66.5037 69.4644 66.3524 69.5021 66.1919C69.5814 65.8702 69.5305 65.53 69.3605 65.2458C69.1906 64.9616 68.9153 64.7565 68.595 64.6753C66.9389 64.2825 65.2306 64.1596 63.5355 64.3113C65.7486 62.12 68.3014 60.3034 71.0945 58.9324C71.391 58.7846 71.6169 58.5249 71.7227 58.2103C71.8285 57.8956 71.8056 57.5517 71.6589 57.254C71.588 57.1074 71.4888 56.9764 71.3672 56.8685C71.2455 56.7606 71.1038 56.6779 70.9501 56.6253C70.7964 56.5726 70.6338 56.5511 70.4718 56.5618C70.3098 56.5725 70.1515 56.6153 70.006 56.6878C68.1075 57.6284 66.3049 58.7527 64.624 60.0445L64.9264 58.7099C64.992 58.3856 64.9271 58.0484 64.7458 57.7718C64.5646 57.4953 64.2817 57.3019 63.9588 57.2337C63.7998 57.1952 63.6346 57.1895 63.4733 57.2169C63.312 57.2442 63.1579 57.3042 63.0203 57.393C62.8828 57.4819 62.7646 57.5978 62.673 57.7338C62.5814 57.8698 62.5182 58.023 62.4874 58.1842L61.4997 62.7947C60.68 63.6211 59.9062 64.4919 59.1816 65.4033C59.0643 65.5249 58.9627 65.6607 58.8792 65.8077C58.0646 66.8833 57.3109 68.004 56.6216 69.1645C55.9098 67.7022 55.5964 66.077 55.7132 64.454C55.83 62.8309 56.3729 61.2677 57.2868 59.9232C60.5523 55.1711 67.829 52.8861 76.3354 53.8567C74.2443 56.419 72.7499 59.4174 71.9613 62.6329V62.6329Z" fill="#EFEFCD"/>
<path d="M50.3124 62.4712C51.1021 61.2414 51.5304 59.8132 51.5482 58.3504C51.5661 56.8876 51.1727 55.4494 50.4132 54.2005C47.7122 49.8327 40.6571 47.6487 32.433 48.6194C32.1543 48.6431 31.8921 48.7613 31.6894 48.9546C31.4868 49.1479 31.3559 49.4048 31.3183 49.6828C31.2807 49.9608 31.3387 50.2433 31.4827 50.4838C31.6267 50.7242 31.8482 50.9083 32.1105 51.0055C34.3076 51.9155 34.8922 54.241 35.5775 56.9507C36.5249 60.7726 37.694 65.4033 44.3459 65.4033C45.3047 65.3946 46.2615 65.3135 47.2082 65.1607C47.5127 65.1109 47.7874 64.9481 47.9778 64.7046C48.1683 64.4612 48.2605 64.1548 48.2363 63.8463C48.8899 65.0352 49.4363 66.2805 49.869 67.567C49.947 67.8159 50.1028 68.0329 50.3134 68.1858C50.524 68.3388 50.7781 68.4197 51.0381 68.4163C51.1718 68.436 51.3076 68.436 51.4412 68.4163C51.7544 68.3059 52.012 68.0769 52.159 67.7784C52.3059 67.4798 52.3305 67.1354 52.2274 66.8188C51.7198 65.3151 51.0789 63.8601 50.3124 62.4712V62.4712ZM46.8252 62.6936C39.871 63.8058 39.0849 60.6715 37.9964 56.344C37.6367 54.417 36.926 52.573 35.9 50.9044C42.3907 50.9044 46.7849 52.9266 48.3572 55.5352C48.7657 56.1975 49.0148 56.9462 49.0848 57.7219C49.1548 58.4976 49.0437 59.279 48.7603 60.0042C47.0498 57.676 44.916 55.6932 42.4713 54.1601C42.1927 53.9853 41.8567 53.9277 41.536 53.9996C41.2154 54.0715 40.9358 54.2672 40.7579 54.5443C40.5837 54.8238 40.5262 55.1609 40.5979 55.4826C40.6696 55.8043 40.8647 56.0847 41.1409 56.2632C43.8037 57.9463 46.0506 60.2143 47.7122 62.8958C47.4504 62.7242 47.1332 62.6591 46.8252 62.7138V62.6936Z" fill="#EFEFCD"/>
<path d="M99.1736 48.8014C97.1578 42.1485 90.7277 35.5159 79.2381 38.084C78.2247 36.4509 77.1 34.8901 75.8718 33.4128V33.4128C70.8318 27.1347 63.6493 22.9556 55.7146 21.6843C56.2369 20.8773 56.5168 19.9367 56.5209 18.9746C56.5274 18.2055 56.3538 17.4456 56.0142 16.7561C55.6745 16.0665 55.1783 15.4666 54.5654 15.0045C53.9525 14.5425 53.24 14.2312 52.4853 14.0958C51.7306 13.9604 50.9548 14.0046 50.2202 14.2248C49.4856 14.4451 48.8128 14.8352 48.256 15.3639C47.6991 15.8926 47.2738 16.545 47.0141 17.2686C46.7544 17.9923 46.6677 18.767 46.761 19.5304C46.8542 20.2939 47.1248 21.0247 47.5509 21.664C42.8289 22.4543 38.3314 24.2536 34.3632 26.9401C30.395 29.6266 27.0489 33.1374 24.5515 37.2347C22.2833 40.7149 20.5188 44.5004 19.3106 48.4779L8.6676 34.5452C8.54024 34.4136 8.38606 34.3112 8.21559 34.2449C8.04513 34.1785 7.8624 34.1499 7.6799 34.161H1.24974C1.03964 34.1608 0.832988 34.2145 0.649493 34.3172C0.465998 34.4199 0.311786 34.568 0.201569 34.7474C0.0971882 34.9288 0.0422363 35.1345 0.0422363 35.344C0.0422363 35.5534 0.0971882 35.7591 0.201569 35.9405L18.6454 74.6042C19.2537 76.5593 20.2468 78.372 21.5659 79.935C22.8851 81.4981 24.5035 82.7797 26.3253 83.704C32.05 86.7372 39.9315 86.7372 49.1433 86.7372H50.3931C59.5444 86.7372 68.1717 86.7372 74.7631 83.8455C78.2181 82.4067 81.1072 79.8707 82.9873 76.6264C97.4199 71.3688 102.117 58.4269 99.1736 48.8014ZM49.2038 18.9139C49.2038 18.438 49.3445 17.9727 49.608 17.577C49.8716 17.1813 50.2462 16.8728 50.6846 16.6907C51.1229 16.5086 51.6052 16.4609 52.0705 16.5538C52.5358 16.6466 52.9632 16.8758 53.2986 17.2123C53.6341 17.5489 53.8626 17.9777 53.9551 18.4444C54.0477 18.9112 54.0002 19.3951 53.8186 19.8348C53.6371 20.2745 53.3296 20.6503 52.9352 20.9147C52.5407 21.1791 52.0769 21.3203 51.6025 21.3203C50.9663 21.3203 50.3562 21.0668 49.9064 20.6155C49.4565 20.1642 49.2038 19.5521 49.2038 18.9139ZM51.6025 23.8075C55.4729 23.8655 59.2916 24.7088 62.8286 26.2866C66.3655 27.8643 69.5476 30.144 72.183 32.9881H31.022C33.6574 30.144 36.8395 27.8643 40.3764 26.2866C43.9134 24.7088 47.7321 23.8655 51.6025 23.8075V23.8075ZM3.22515 36.5674H7.05503L18.4439 51.4505C17.5192 55.2841 17.0523 59.2145 17.053 63.1588C17.053 64.0081 17.053 64.817 17.053 65.6056L3.22515 36.5674ZM73.7754 81.4998C67.7283 84.1286 59.2824 84.169 50.3931 84.169H48.7402C40.0524 84.169 32.6144 84.169 27.4743 81.52C25.8933 80.7145 24.4942 79.5916 23.3638 78.2211C22.2334 76.8505 21.3958 75.2615 20.903 73.5527V73.5527C19.8987 70.1831 19.436 66.6745 19.5324 63.1588C19.429 54.4392 21.8823 45.8814 26.5874 38.5491C27.2929 37.4773 28.0387 36.5269 28.8248 35.4956H74.36C80.5036 43.3881 83.7814 53.1459 83.6525 63.1588C83.6525 72.7641 80.508 78.6485 73.7754 81.4998V81.4998ZM82.7454 45.1009C84.7516 44.6216 86.8651 44.9503 88.6325 46.0164C90.3999 47.0825 91.6803 48.8011 92.1992 50.8034C93.3001 54.03 93.2597 57.5386 92.085 60.7389C90.9103 63.9393 88.6728 66.6361 85.7488 68.376C86.0131 66.6631 86.1479 64.9325 86.152 63.1992C86.1737 56.9909 85.0176 50.8352 82.7454 45.0605V45.1009ZM84.5999 73.4112C84.8051 72.8138 84.98 72.2063 85.124 71.5912C89.1234 69.834 92.3145 66.6274 94.0596 62.6124C95.8048 58.5974 95.9754 54.0696 94.5374 49.9339C93.7857 47.2749 92.015 45.0228 89.6126 43.67C87.2102 42.3172 84.3715 41.9737 81.7174 42.7147C81.3546 41.9059 80.9514 41.1172 80.5281 40.3488C89.9012 38.6098 95.1421 44.0696 96.795 49.5294C99.2139 57.4563 95.646 68.0322 84.5999 73.31V73.4112Z" fill="#EFEFCD"/>
<path d="M41.0603 80.428C38.8469 80.319 36.6608 79.8899 34.5696 79.154C34.4175 79.0959 34.2554 79.0686 34.0927 79.0737C33.93 79.0789 33.7699 79.1165 33.6218 79.1842C33.4736 79.2519 33.3404 79.3484 33.2297 79.4682C33.1191 79.588 33.0333 79.7287 32.9772 79.882C32.9189 80.036 32.8914 80.2001 32.8963 80.3647C32.9012 80.5294 32.9384 80.6915 33.0058 80.8417C33.0732 80.992 33.1695 81.1274 33.2891 81.2403C33.4087 81.3532 33.5493 81.4414 33.7029 81.4997C36.0264 82.323 38.4577 82.7999 40.9192 82.9152C41.2207 82.8766 41.4979 82.729 41.6988 82.5001C41.8997 82.2711 42.0105 81.9766 42.0105 81.6716C42.0105 81.3666 41.8997 81.0721 41.6988 80.8432C41.4979 80.6142 41.2207 80.4666 40.9192 80.428H41.0603Z" fill="#EFEFCD"/>
<path d="M24.9949 57.2338C25.0396 57.0618 25.0472 56.8822 25.0174 56.707C24.9876 56.5318 24.9209 56.3649 24.8219 56.2175C24.7229 56.0701 24.5938 55.9455 24.4431 55.8519C24.2925 55.7584 24.1237 55.6981 23.948 55.675C23.7723 55.6518 23.5937 55.6665 23.4241 55.7179C23.2545 55.7693 23.0977 55.8563 22.9641 55.9731C22.8306 56.0899 22.7233 56.2339 22.6495 56.3955C22.5756 56.557 22.5369 56.7325 22.5358 56.9103C21.1449 67.4053 21.7899 74.6042 29.5706 80.246C29.78 80.4035 30.0346 80.4887 30.2963 80.4887C30.494 80.4888 30.6889 80.4411 30.8644 80.3496C31.0398 80.258 31.1907 80.1254 31.3041 79.9629C31.4967 79.6965 31.5771 79.3649 31.5281 79.0396C31.4791 78.7142 31.3045 78.4212 31.0421 78.2239C24.2894 73.2898 23.8057 67.0413 24.9949 57.2338Z" fill="#EFEFCD"/>
</g>
<defs>
<clipPath id="clip0_428_247">
<rect width="100" height="72.6562" fill="white" transform="translate(0 14)"/>
</clipPath>
</defs>
</svg>
