<svg width="80" height="80" viewBox="0 0 80 80" fill="none" xmlns="http://www.w3.org/2000/svg">
<g clip-path="url(#clip0_1178_293)">
<path d="M59.9327 50.3584C53.0944 50.3584 45.7851 51.8769 45.2988 55.1417C44.0255 58.4518 43.6125 62.0304 44.0983 65.5433C43.9712 65.3224 43.7719 65.152 43.5339 65.0607C43.2959 64.9695 43.0337 64.9629 42.7914 65.0422C39.3526 66.1353 35.7626 66.6785 32.1541 66.6518C13.1285 66.6518 4.61866 54.2458 4.61866 41.9461C4.61866 33.9892 7.56671 29.7982 14.4658 28.1127C14.6221 28.0884 14.7717 28.0319 14.905 27.9467C15.0383 27.8615 15.1524 27.7495 15.24 27.6178C15.3276 27.4861 15.3868 27.3377 15.4139 27.1819C15.4409 27.0261 15.4352 26.8664 15.397 26.7129C15.3589 26.5594 15.2892 26.4156 15.1924 26.2905C15.0956 26.1654 14.9738 26.0619 14.8347 25.9864C14.6956 25.911 14.5424 25.8653 14.3847 25.8523C14.227 25.8393 14.0683 25.8593 13.9187 25.9109C6.01671 27.9001 2.33923 32.987 2.33923 41.9461C2.33923 57.8294 14.6025 68.9295 32.1541 68.9295C35.9845 68.9536 39.7948 68.3745 43.4449 67.2136C43.6225 67.1484 43.7817 67.0411 43.9087 66.9009C44.0358 66.7608 44.1269 66.5919 44.1743 66.4088C44.8125 70.4632 46.5753 74.396 50.1768 76.446C51.663 77.2527 53.3332 77.6608 55.0243 77.6304H64.3092C65.7328 77.6412 67.1431 77.3565 68.451 76.7946C69.7589 76.2326 70.9358 75.4055 71.9073 74.3657C77.4539 68.2917 75.6455 58.3608 74.5514 55.2328C74.1259 51.8769 66.7862 50.3584 59.9327 50.3584ZM59.9327 52.6362C67.9866 52.6362 72.3176 54.6558 72.3176 55.4757C72.3176 55.7946 71.6489 56.2957 70.3725 56.7968C67.0644 55.4443 63.5041 54.8177 59.9327 54.9594C56.3611 54.8162 52.8006 55.4429 49.4929 56.7968C48.2012 56.2957 47.5326 55.7946 47.5326 55.4757C47.5326 54.6861 51.8787 52.6665 59.9327 52.6665V52.6362ZM66.2391 57.9509L64.8562 58.1483H64.7651C61.5428 58.4975 58.2922 58.4975 55.0699 58.1483L53.5959 57.9509C57.809 57.1614 62.1323 57.1614 66.3455 57.9509H66.2391ZM70.2357 72.8775C69.4751 73.6833 68.556 74.3231 67.5361 74.7569C66.5162 75.1907 65.4176 75.4091 64.3092 75.3982H55.0851C53.7879 75.4221 52.5062 75.1137 51.362 74.5023C46.0282 71.4654 45.6027 62.6885 46.8032 57.9964C46.9414 58.1097 47.0888 58.2113 47.2439 58.3001L47.0159 58.4368L49.2498 59.2264L49.5993 59.3327L50.1919 59.5149L50.5718 59.6212L51.362 59.8186H51.6812L52.6081 60.0008H52.9273L53.8846 60.1527H54.2797L55.2067 60.2741H55.693H56.5743H57.1062H58.0332H58.5346H61.4067H61.9082C62.2121 60.2741 62.5312 60.2741 62.8352 60.2741H63.367H64.2636H64.7499L65.6616 60.1527H66.0719L67.0141 60.0008H67.3484L68.2602 59.8186H68.5793L69.3695 59.6212L69.7646 59.5149L70.3421 59.3327L70.7068 59.2264L72.9254 58.4368L72.7127 58.3001L73.0014 58.1027C73.7308 61.7319 74.1563 68.5802 70.2357 72.8016V72.8775Z" fill="#B17F5E"/>
<path d="M76.8612 23.6635C76.7733 23.4622 76.629 23.2905 76.4456 23.1693C76.2623 23.0481 76.0478 22.9824 75.8279 22.9802H69.9622C69.732 22.9801 69.5071 23.0497 69.3172 23.1798C69.1273 23.3099 68.9813 23.4945 68.8985 23.7091C65.3426 32.82 62.6832 35.2647 61.3004 35.8569C59.9479 30.7852 56.6504 27.6116 51.1797 26.0324C51.033 25.9808 50.8773 25.9598 50.7222 25.9706C50.5671 25.9815 50.4158 26.0239 50.2777 26.0953C50.1396 26.1668 50.0176 26.2657 49.9192 26.386C49.8208 26.5063 49.7481 26.6454 49.7055 26.7949C49.6629 26.9443 49.6514 27.1009 49.6716 27.2549C49.6919 27.409 49.7434 27.5573 49.8232 27.6907C49.9029 27.8241 50.0091 27.9398 50.1353 28.0306C50.2614 28.1215 50.4048 28.1856 50.5567 28.219C56.8935 30.0412 59.6744 34.2929 59.6744 41.8853C59.6813 44.1539 59.4005 46.4142 58.8386 48.6122C58.7648 48.9041 58.8097 49.2134 58.9635 49.4724C59.1172 49.7313 59.3674 49.9189 59.6592 49.994C59.7549 50.0086 59.8522 50.0086 59.9479 49.994C60.1985 49.9922 60.4414 49.9079 60.6392 49.7541C60.837 49.6004 60.9786 49.3859 61.042 49.1437C61.6581 46.7582 61.9645 44.3034 61.9538 41.8398C61.9734 40.6269 61.9074 39.4142 61.7563 38.2106C64.6131 37.2388 67.6524 32.987 70.6916 25.2579H73.4421C70.6916 29.3427 70.1901 33.9133 69.7039 38.3321C69.5502 41.8979 68.7038 45.3998 67.2117 48.6426C67.0754 48.9053 67.0467 49.2107 67.1318 49.4941C67.2169 49.7775 67.409 50.0167 67.6676 50.161C67.8328 50.2603 68.0219 50.3127 68.2146 50.3129C68.4197 50.3135 68.621 50.2587 68.7975 50.1545C68.9741 50.0503 69.1192 49.9004 69.2176 49.7207C70.854 46.2206 71.7884 42.4341 71.9681 38.575C72.5151 33.5792 73.0318 28.8719 76.6181 24.9087C76.7794 24.7498 76.889 24.5459 76.9324 24.3237C76.9757 24.1015 76.951 23.8714 76.8612 23.6635Z" fill="#B17F5E"/>
<path d="M18.3712 27.6571H46.0434C46.3457 27.6571 46.6356 27.5372 46.8493 27.3236C47.063 27.11 47.1831 26.8203 47.1831 26.5183V23.0258C47.1814 22.7606 47.0882 22.504 46.9194 22.2994C46.7506 22.0947 46.5164 21.9544 46.2562 21.9021L35.9076 19.9888C35.8061 19.075 35.371 18.2307 34.6855 17.6175C33.9999 17.0043 33.1122 16.6652 32.1921 16.6652C31.272 16.6652 30.3843 17.0043 29.6988 17.6175C29.0132 18.2307 28.5781 19.075 28.4766 19.9888L18.1585 21.8869C17.8983 21.9392 17.664 22.0795 17.4952 22.2842C17.3264 22.4889 17.2333 22.7454 17.2315 23.0106V26.5183C17.2294 26.6684 17.2575 26.8174 17.3141 26.9565C17.3706 27.0956 17.4545 27.222 17.5607 27.3281C17.667 27.4343 17.7934 27.5181 17.9326 27.5746C18.0718 27.6311 18.221 27.6592 18.3712 27.6571ZM19.5109 23.9369L29.8139 22.0388C30.0209 21.9992 30.2129 21.903 30.3685 21.7609C30.5241 21.6188 30.6372 21.4364 30.6953 21.234C30.6953 21.234 30.6953 21.234 30.6953 21.158C30.7257 21.0179 30.7257 20.873 30.6953 20.7329C30.6877 20.6419 30.6877 20.5505 30.6953 20.4595C30.6446 20.2372 30.6446 20.0062 30.6955 19.7839C30.7463 19.5615 30.8466 19.3535 30.989 19.1752C31.1313 18.9969 31.312 18.8529 31.5177 18.754C31.7233 18.655 31.9487 18.6036 32.1769 18.6036C32.4052 18.6036 32.6305 18.655 32.8361 18.754C33.0418 18.8529 33.2225 18.9969 33.3648 19.1752C33.5072 19.3535 33.6075 19.5615 33.6583 19.7839C33.7092 20.0062 33.7093 20.2372 33.6585 20.4595C33.666 20.5505 33.666 20.6419 33.6585 20.7329C33.6282 20.8781 33.6282 21.028 33.6585 21.1732L33.662 21.1763C33.7519 21.3709 33.7519 21.3709 33.8417 21.5654L33.8409 21.568C33.8938 21.6361 33.9551 21.6974 34.0232 21.7502C34.0599 21.7945 34.1006 21.8351 34.1448 21.8717H34.312C34.3956 21.9088 34.4819 21.9393 34.5703 21.9628L44.8581 23.952V25.3946H19.5109V23.9369Z" fill="#B17F5E"/>
<path d="M9.60301 25.5161C9.90528 25.5161 10.1952 25.3961 10.4089 25.1825C10.6226 24.9689 10.7427 24.6793 10.7427 24.3772C10.7427 10.3009 21.5776 3.87773 31.6526 3.87773C41.7277 3.87773 52.5474 10.3009 52.5474 24.3772C52.5474 24.6793 52.6674 24.9689 52.8812 25.1825C53.0949 25.3961 53.3848 25.5161 53.6871 25.5161C53.9894 25.5161 54.2792 25.3961 54.493 25.1825C54.7067 24.9689 54.8268 24.6793 54.8268 24.3772C54.8268 13.4138 47.5782 1.60001 31.6526 1.60001C15.7271 1.60001 8.4633 13.4138 8.4633 24.3772C8.46126 24.5274 8.48934 24.6764 8.54589 24.8155C8.60244 24.9546 8.68632 25.0809 8.79256 25.1871C8.8988 25.2932 9.02526 25.3771 9.16446 25.4336C9.30366 25.4901 9.45278 25.5181 9.60301 25.5161Z" fill="#B17F5E"/>
<path d="M8.64567 46.1219C8.57343 45.8301 8.39011 45.5779 8.13468 45.4191C7.87926 45.2603 7.57191 45.2074 7.27801 45.2715C7.13077 45.3054 6.99174 45.3682 6.86901 45.4563C6.74628 45.5443 6.6423 45.6559 6.56311 45.7845C6.48392 45.9131 6.43111 46.0561 6.40775 46.2053C6.38439 46.3544 6.39094 46.5067 6.42703 46.6534C7.21064 50.6839 9.08141 54.4239 11.8373 57.4694C14.5931 60.5149 18.1293 62.7501 22.0639 63.9337C22.1795 63.9541 22.2978 63.9541 22.4134 63.9337C22.6819 63.9296 22.9404 63.8309 23.1432 63.655C23.346 63.4791 23.4801 63.2372 23.5219 62.9722C23.5637 62.7071 23.5104 62.4358 23.3716 62.2061C23.2327 61.9764 23.0172 61.8031 22.7629 61.7167C15.2408 59.3782 10.5148 54.1243 8.64567 46.1219Z" fill="#B17F5E"/>
<path d="M24.9359 64.4651C25.4731 64.4651 25.9085 64.03 25.9085 63.4933C25.9085 62.9566 25.4731 62.5215 24.9359 62.5215C24.3988 62.5215 23.9634 62.9566 23.9634 63.4933C23.9634 64.03 24.3988 64.4651 24.9359 64.4651Z" fill="#B17F5E"/>
</g>
<defs>
<clipPath id="clip0_1178_293">
<rect width="74.5524" height="76" fill="white" transform="translate(2.40002 1.60001)"/>
</clipPath>
</defs>
</svg>
