<svg width="100" height="100" viewBox="0 0 100 100" fill="none" xmlns="http://www.w3.org/2000/svg">
<path d="M55.4936 22.7402C55.6844 22.9637 55.9213 23.1431 56.188 23.2661C56.4546 23.3891 56.7447 23.4528 57.0383 23.4528C57.5253 23.4472 57.9941 23.2665 58.3593 22.9438C58.5622 22.77 58.7289 22.558 58.8499 22.3197C58.9709 22.0813 59.0439 21.8215 59.0647 21.5549C59.0854 21.2884 59.0536 21.0203 58.9709 20.7661C58.8883 20.5119 58.7564 20.2765 58.5829 20.0733C56.3879 17.5082 57.1399 15.737 58.8065 12.5204C60.4731 9.30375 62.5258 5.35424 58.5829 0.732906C58.4094 0.529721 58.1977 0.362753 57.9598 0.241536C57.7219 0.120319 57.4625 0.0472261 57.1963 0.0264312C56.9302 0.00563637 56.6626 0.0375464 56.4089 0.12034C56.1551 0.203133 55.92 0.335188 55.7172 0.508965C55.5143 0.682742 55.3476 0.894837 55.2266 1.13314C55.1056 1.37145 55.0326 1.63129 55.0119 1.89785C54.9911 2.1644 55.023 2.43244 55.1056 2.68666C55.1883 2.94088 55.3201 3.1763 55.4936 3.37949C57.526 5.82248 56.8553 7.45115 55.1887 10.6678C53.5222 13.8844 51.4084 17.956 55.4936 22.7402Z" fill="#EFEFCD"/>
<path d="M68.2369 22.7402C68.4277 22.9637 68.6646 23.1431 68.9313 23.2661C69.1979 23.3891 69.488 23.4528 69.7816 23.4528C70.2686 23.4472 70.7374 23.2666 71.1026 22.9438C71.3055 22.7701 71.4722 22.558 71.5932 22.3197C71.7142 22.0814 71.7872 21.8215 71.808 21.5549C71.8287 21.2884 71.7969 21.0203 71.7142 20.7661C71.6315 20.5119 71.4997 20.2765 71.3262 20.0733C69.1312 17.5082 69.8832 15.737 71.5498 12.5204C73.2164 9.30376 75.2488 5.35425 71.3262 0.732911C70.9758 0.32256 70.4771 0.068433 69.9396 0.0264358C69.4022 -0.0155613 68.8701 0.158011 68.4605 0.508969C68.0508 0.859928 67.7971 1.35952 67.7552 1.89785C67.7132 2.43618 67.8865 2.96914 68.2369 3.37949C70.2693 5.82249 69.5986 7.45115 67.932 10.6678C66.2654 13.8844 64.1517 17.956 68.2369 22.7402Z" fill="#EFEFCD"/>
<path d="M85.289 37.0318V32.9601C85.289 32.4202 85.0749 31.9024 84.6937 31.5206C84.3126 31.1388 83.7956 30.9243 83.2566 30.9243H50.7377C50.1986 30.9243 49.6817 31.1388 49.3005 31.5206C48.9194 31.9024 48.7053 32.4202 48.7053 32.9601C48.7053 33.5001 48.9194 34.0179 49.3005 34.3997C49.6817 34.7815 50.1986 34.996 50.7377 34.996H81.2241V59.4259C81.2241 73.6768 68.5418 85.3624 52.953 85.3624C37.7505 85.3624 25.0681 74.0228 24.6819 60.0774C24.6819 59.5375 24.4678 59.0197 24.0866 58.6379C23.7055 58.2561 23.1885 58.0416 22.6495 58.0416C22.1105 58.0416 21.5935 58.2561 21.2124 58.6379C20.8312 59.0197 20.6171 59.5375 20.6171 60.0774C21.0642 76.6491 35.2709 89.4952 52.8921 89.4952C68.8873 89.4952 82.159 78.6645 84.7402 64.4952C88.2277 64.3329 91.5227 62.8468 93.9558 60.3388C96.3889 57.8308 97.7776 54.4891 97.8397 50.9926C97.9018 47.496 96.6327 44.107 94.2902 41.5139C91.9477 38.9208 88.7075 37.3183 85.228 37.0318H85.289ZM85.289 60.3421C85.289 60.0571 85.289 59.772 85.289 59.487V41.1645C87.6808 41.3853 89.9041 42.4932 91.5227 44.2708C93.1414 46.0485 94.0387 48.3677 94.0387 50.7737C94.0387 53.1797 93.1414 55.4989 91.5227 57.2765C89.9041 59.0542 87.6808 60.162 85.289 60.3828V60.3421Z" fill="#EFEFCD"/>
<path d="M43.2989 32.9397C43.2909 28.8505 42.073 24.8555 39.7991 21.4594C37.5253 18.0633 34.2975 15.4185 30.5235 13.8592C26.7496 12.2999 22.599 11.8961 18.5961 12.6988C14.5932 13.5015 10.9176 15.4747 8.03375 18.369C5.14994 21.2633 3.1873 24.9489 2.39382 28.9601C1.60034 32.9713 2.01164 37.1281 3.57574 40.9052C5.13984 44.6824 7.78655 47.9104 11.1815 50.1814C14.5764 52.4524 18.5671 53.6645 22.6495 53.6645C25.3639 53.6618 28.0511 53.1236 30.5579 52.0807C33.0647 51.0377 35.3418 49.5104 37.2593 47.5859C39.1768 45.6614 40.697 43.3775 41.7333 40.8645C42.7696 38.3515 43.3016 35.6587 43.2989 32.9397V32.9397ZM6.14613 32.9397C6.15421 29.6524 7.1358 26.4414 8.96664 23.7131C10.7975 20.9848 13.3953 18.862 16.4311 17.6133C19.467 16.3647 22.8045 16.0463 26.0211 16.6985C29.2377 17.3507 32.1888 18.9442 34.5009 21.2772C36.813 23.6103 38.382 26.578 39.0094 29.8047C39.6369 33.0314 39.2944 36.372 38.0255 39.4037C36.7566 42.4354 34.6183 45.0218 31.8812 46.8356C29.1441 48.6493 25.9313 49.6089 22.6495 49.5928C18.2597 49.5659 14.0591 47.7989 10.9665 44.6781C7.87379 41.5574 6.14067 37.3369 6.14613 32.9397V32.9397Z" fill="#EFEFCD"/>
<path d="M22.6495 35.627H32.8116C33.3507 35.627 33.8676 35.4125 34.2488 35.0307C34.6299 34.6489 34.8441 34.1311 34.8441 33.5912C34.8441 33.0512 34.6299 32.5334 34.2488 32.1516C33.8676 31.7698 33.3507 31.5553 32.8116 31.5553H24.6819V19.2182C24.6819 18.6783 24.4678 18.1604 24.0866 17.7787C23.7055 17.3969 23.1885 17.1824 22.6495 17.1824C22.1105 17.1824 21.5935 17.3969 21.2123 17.7787C20.8312 18.1604 20.6171 18.6783 20.6171 19.2182V31.6775C20.3597 32.0486 20.2182 32.4879 20.2106 32.9397C20.2134 33.2718 20.2833 33.6 20.4161 33.9043C20.5488 34.2087 20.7416 34.4831 20.9829 34.7109C21.1651 34.9881 21.4122 35.2165 21.7027 35.3761C21.9931 35.5358 22.3182 35.6219 22.6495 35.627Z" fill="#EFEFCD"/>
<path d="M87.667 95.9283H18.3408C17.8017 95.9283 17.2848 96.1428 16.9036 96.5246C16.5225 96.9064 16.3083 97.4242 16.3083 97.9642C16.3083 98.5041 16.5225 99.0219 16.9036 99.4037C17.2848 99.7855 17.8017 100 18.3408 100H87.667C88.206 100 88.723 99.7855 89.1041 99.4037C89.4853 99.0219 89.6994 98.5041 89.6994 97.9642C89.6994 97.4242 89.4853 96.9064 89.1041 96.5246C88.723 96.1428 88.206 95.9283 87.667 95.9283Z" fill="#EFEFCD"/>
</svg>
