<svg width="100" height="100" viewBox="0 0 100 100" fill="none" xmlns="http://www.w3.org/2000/svg">
<g clip-path="url(#clip0_428_197)">
<path d="M58.5609 46.055C58.2938 45.7884 57.9317 45.6386 57.5542 45.6386C57.1767 45.6386 56.8146 45.7884 56.5475 46.055C55.1647 47.4723 53.679 48.7855 52.1026 49.984C52.0408 49.727 51.9016 49.4951 51.7037 49.3197C42.586 40.9491 36.8114 46.6623 32.1766 51.2178C29.2323 54.1219 26.478 56.8172 23.0779 56.7033C22.7739 56.6824 22.4714 56.7623 22.2174 56.9304C21.9633 57.0985 21.7717 57.3455 21.6722 57.6334C21.5697 57.9178 21.5604 58.2275 21.6458 58.5176C21.7312 58.8077 21.9068 59.0631 22.1471 59.2468C27.1166 63.4009 33.304 65.8261 39.7747 66.1558C42.3064 66.1995 44.8083 65.6054 47.0498 64.4286C49.0933 63.275 50.7596 61.5559 51.8481 59.4782C52.9366 57.4004 53.401 55.0526 53.1853 52.7173C55.1096 51.2847 56.9138 49.6977 58.5799 47.972C58.8163 47.7075 58.9453 47.3644 58.9418 47.0098C58.9383 46.6552 58.8025 46.3147 58.5609 46.055V46.055ZM45.6822 62.037C40.8004 64.6753 33.5632 63.4795 26.687 59.038C29.5917 57.694 32.1806 55.7538 34.2851 53.3437C39.0339 48.6554 42.7759 44.9351 49.8801 51.4456C49.9432 51.4945 50.0137 51.533 50.0891 51.5594C48.817 52.4046 47.4908 53.1655 46.1191 53.8372C43.7744 53.4869 41.5793 52.4725 39.7937 50.9141C39.5065 50.6624 39.1311 50.535 38.7499 50.5599C38.3687 50.5848 38.0131 50.76 37.7612 51.047C37.5093 51.3339 37.3818 51.7091 37.4067 52.09C37.4317 52.4708 37.607 52.8262 37.8942 53.0779C39.0338 54.0654 40.3141 54.8778 41.6932 55.4885C39.0977 56.2614 36.4045 56.6577 33.6962 56.6653H33.2213C32.8435 56.6653 32.4811 56.8153 32.214 57.0823C31.9468 57.3493 31.7967 57.7114 31.7967 58.0889C31.7967 58.4665 31.9468 58.8286 32.214 59.0955C32.4811 59.3625 32.8435 59.5125 33.2213 59.5125H33.7342C35.4917 59.4952 37.2449 59.3365 38.9769 59.038L38.426 59.7023C38.1898 59.998 38.0794 60.3747 38.1185 60.751C38.1575 61.1274 38.343 61.4733 38.635 61.7143C38.9226 61.9168 39.2745 62.0074 39.6242 61.9689C39.974 61.9305 40.2977 61.7657 40.5345 61.5055L43.4408 57.9371C44.5235 57.5764 45.6062 57.1588 46.6699 56.6843H46.8029C47.9971 56.1308 49.1521 55.4966 50.26 54.7862C50.1729 56.283 49.7073 57.7333 48.9067 59.0014C48.1061 60.2695 46.9967 61.3139 45.6822 62.037V62.037Z" fill="#EFEFCD"/>
<path d="M74.9159 62.948C66.3681 62.948 57.2314 64.8462 56.6235 68.9271C55.0319 73.0648 54.5157 77.538 55.1229 81.9291C54.9641 81.653 54.715 81.44 54.4175 81.3259C54.1199 81.2118 53.7922 81.2036 53.4893 81.3027C49.1908 82.6691 44.7033 83.3481 40.1927 83.3147C16.4107 83.3147 5.77335 67.8072 5.77335 52.4326C5.77335 42.4865 9.45842 37.2477 18.0822 35.1408C18.2777 35.1105 18.4647 35.0399 18.6313 34.9333C18.7979 34.8268 18.9406 34.6868 19.0501 34.5222C19.1596 34.3576 19.2336 34.1721 19.2674 33.9773C19.3011 33.7826 19.294 33.5829 19.2463 33.3911C19.1987 33.1993 19.1115 33.0195 18.9905 32.8631C18.8695 32.7068 18.7172 32.5773 18.5434 32.483C18.3696 32.3887 18.178 32.3316 17.9809 32.3154C17.7837 32.2991 17.5854 32.324 17.3984 32.3886C7.52091 34.8751 2.92407 41.2338 2.92407 52.4326C2.92407 72.2867 18.2532 86.1618 40.1927 86.1618C44.9807 86.1919 49.7435 85.4681 54.3061 84.017C54.5282 83.9355 54.7271 83.8014 54.8859 83.6262C55.0447 83.4509 55.1586 83.2399 55.2179 83.011C56.0157 88.0789 58.2191 92.995 62.721 95.5574C64.5788 96.5659 66.6665 97.076 68.7804 97.038H80.3865C82.166 97.0514 83.929 96.6957 85.5638 95.9932C87.1986 95.2908 88.6698 94.2569 89.8841 92.9571C96.8174 85.3646 94.5569 72.951 93.1893 69.041C92.6574 64.8461 83.4827 62.948 74.9159 62.948ZM74.9159 65.7952C84.9834 65.7952 90.397 68.3197 90.397 69.3447C90.397 69.7433 89.5612 70.3696 87.9656 70.996C83.8305 69.3053 79.3802 68.5221 74.9159 68.6993C70.4515 68.5203 66.0008 69.3036 61.8662 70.996C60.2516 70.3696 59.4158 69.7433 59.4158 69.3447C59.4158 68.3576 64.8484 65.8332 74.9159 65.8332V65.7952ZM82.7989 72.4386L81.0703 72.6853H80.9564C76.9285 73.1219 72.8653 73.1219 68.8374 72.6853V72.6853L66.9949 72.4386C72.2613 71.4517 77.6654 71.4517 82.9319 72.4386H82.7989ZM87.7946 91.0969C86.8439 92.1041 85.6951 92.9039 84.4202 93.4462C83.1453 93.9884 81.772 94.2613 80.3865 94.2478H68.8564C67.2349 94.2776 65.6327 93.8921 64.2026 93.1279C57.5353 89.3317 57.0034 78.3606 58.504 72.4955C58.6768 72.6372 58.861 72.7641 59.0549 72.8751L58.77 73.046L61.5623 74.033L61.9992 74.1658L62.74 74.3936L63.2148 74.5265L64.2026 74.7732H64.6015L65.7602 75.001H66.1591L67.3558 75.1908H67.8497L69.0084 75.3427H69.6162H70.718H71.3828H72.5415H73.1683H76.7584H77.3853C77.7652 75.3427 78.1641 75.3427 78.544 75.3427H79.2088H80.3295H80.9374L82.0771 75.1908H82.59L83.7677 75.001H84.1856L85.3253 74.7732H85.7242L86.7119 74.5265L87.2058 74.3936L87.9276 74.1658L88.3835 74.033L91.1568 73.046L90.8909 72.8751L91.2518 72.6284C92.1635 77.1648 92.6954 85.7253 87.7946 91.002V91.0969Z" fill="#EFEFCD"/>
<path d="M96.0765 29.5794C95.9666 29.3277 95.7862 29.1131 95.557 28.9616C95.3278 28.81 95.0597 28.7279 94.7849 28.7252H87.4527C87.1649 28.7251 86.8839 28.8121 86.6465 28.9747C86.4092 29.1374 86.2267 29.368 86.1231 29.6363C81.6782 41.0249 78.354 44.0809 76.6255 44.8211C74.9349 38.4815 70.8129 34.5144 63.9747 32.5404C63.7913 32.476 63.5967 32.4497 63.4028 32.4632C63.2089 32.4768 63.0198 32.5298 62.8472 32.6191C62.6745 32.7084 62.522 32.832 62.399 32.9824C62.276 33.1328 62.1851 33.3067 62.1318 33.4935C62.0786 33.6803 62.0642 33.876 62.0895 34.0686C62.1148 34.2612 62.1793 34.4466 62.2789 34.6133C62.3786 34.7801 62.5114 34.9247 62.6691 35.0382C62.8267 35.1518 63.006 35.2319 63.1958 35.2737C71.1169 37.5514 74.593 42.8661 74.593 52.3566C74.6017 55.1923 74.2506 58.0177 73.5482 60.7652C73.456 61.1301 73.5121 61.5167 73.7043 61.8404C73.8965 62.1641 74.2092 62.3985 74.574 62.4924C74.6936 62.5107 74.8153 62.5107 74.9349 62.4924C75.2481 62.4901 75.5518 62.3848 75.799 62.1926C76.0462 62.0005 76.2232 61.7323 76.3025 61.4295C77.0726 58.4476 77.4557 55.3792 77.4423 52.2996C77.4667 50.7836 77.3842 49.2677 77.1953 47.7632C80.7664 46.5484 84.5655 41.2337 88.3645 31.5724H91.8026C88.3645 36.6783 87.7376 42.3916 87.1298 47.915C86.9377 52.3723 85.8797 56.7497 84.0146 60.8031C83.8442 61.1315 83.8084 61.5133 83.9147 61.8675C84.0211 62.2218 84.2613 62.5208 84.5844 62.7012C84.791 62.8253 85.0273 62.8909 85.2683 62.8911C85.5246 62.8918 85.7763 62.8234 85.9969 62.6931C86.2176 62.5628 86.3989 62.3755 86.522 62.1508C88.5675 57.7757 89.7355 53.0425 89.9601 48.2187C90.6439 41.974 91.2898 36.0899 95.7726 31.1358C95.9743 30.9372 96.1112 30.6823 96.1654 30.4045C96.2197 30.1268 96.1887 29.8392 96.0765 29.5794V29.5794Z" fill="#EFEFCD"/>
<path d="M22.964 34.5714H57.5542C57.9321 34.5714 58.2944 34.4215 58.5616 34.1545C58.8288 33.8875 58.9789 33.5254 58.9789 33.1479V28.7822C58.9767 28.4507 58.8602 28.1301 58.6492 27.8742C58.4382 27.6184 58.1454 27.4431 57.8202 27.3776L44.8844 24.986C44.7576 23.8438 44.2137 22.7884 43.3568 22.0219C42.4999 21.2554 41.3902 20.8315 40.2401 20.8315C39.09 20.8315 37.9803 21.2554 37.1234 22.0219C36.2665 22.7884 35.7226 23.8438 35.5958 24.986L22.698 27.3586C22.3728 27.4241 22.08 27.5994 21.869 27.8553C21.6579 28.1111 21.5415 28.4317 21.5393 28.7632V33.1479C21.5368 33.3355 21.5719 33.5218 21.6426 33.6956C21.7132 33.8695 21.8181 34.0275 21.9509 34.1602C22.0837 34.2929 22.2418 34.3976 22.4158 34.4683C22.5898 34.5389 22.7762 34.574 22.964 34.5714ZM24.3886 29.9211L37.2673 27.5485C37.5261 27.499 37.7661 27.3787 37.9606 27.2012C38.1551 27.0236 38.2965 26.7955 38.3691 26.5425C38.3691 26.5425 38.3691 26.5425 38.3691 26.4476C38.4071 26.2724 38.4071 26.0912 38.3691 25.9161C38.3596 25.8024 38.3596 25.6881 38.3691 25.5744C38.3057 25.2965 38.3057 25.0078 38.3693 24.7298C38.4329 24.4519 38.5583 24.1918 38.7362 23.969C38.9141 23.7461 39.14 23.5661 39.3971 23.4425C39.6541 23.3188 39.9358 23.2546 40.2211 23.2546C40.5064 23.2546 40.7881 23.3188 41.0451 23.4425C41.3022 23.5661 41.5281 23.7461 41.706 23.969C41.8839 24.1918 42.0093 24.4519 42.0729 24.7298C42.1364 25.0078 42.1365 25.2965 42.0731 25.5744C42.0825 25.6881 42.0825 25.8024 42.0731 25.9161C42.0352 26.0976 42.0352 26.285 42.0731 26.4665L42.0774 26.4704C42.1898 26.7136 42.1898 26.7136 42.3021 26.9568L42.3011 26.96C42.3672 27.0452 42.4438 27.1217 42.529 27.1878C42.5748 27.2431 42.6256 27.2939 42.681 27.3397H42.8899C42.9944 27.386 43.1024 27.4241 43.2128 27.4536V27.4536L56.0726 29.9401V31.7433H24.3886V29.9211Z" fill="#EFEFCD"/>
<path d="M12.0038 31.8951C12.3816 31.8951 12.744 31.7451 13.0111 31.4782C13.2783 31.2112 13.4284 30.8491 13.4284 30.4715C13.4284 12.8761 26.972 4.84715 39.5658 4.84715C52.1596 4.84715 65.6842 12.8761 65.6842 30.4715C65.6842 30.8491 65.8343 31.2112 66.1015 31.4782C66.3686 31.7451 66.731 31.8951 67.1088 31.8951C67.4867 31.8951 67.849 31.7451 68.1162 31.4782C68.3834 31.2112 68.5335 30.8491 68.5335 30.4715C68.5335 16.7672 59.4728 2 39.5658 2C19.6588 2 10.5791 16.7672 10.5791 30.4715C10.5766 30.6592 10.6117 30.8454 10.6823 31.0193C10.753 31.1932 10.8579 31.3511 10.9907 31.4838C11.1235 31.6165 11.2816 31.7213 11.4556 31.7919C11.6296 31.8626 11.816 31.8977 12.0038 31.8951V31.8951Z" fill="#EFEFCD"/>
<path d="M10.8071 57.6523C10.7168 57.2876 10.4876 56.9724 10.1684 56.7739C9.84908 56.5754 9.46488 56.5092 9.09751 56.5894C8.91346 56.6318 8.73968 56.7103 8.58626 56.8203C8.43285 56.9304 8.30287 57.0699 8.20389 57.2306C8.1049 57.3913 8.03889 57.5701 8.00969 57.7566C7.98048 57.943 7.98867 58.1334 8.03378 58.3167C9.0133 63.3549 11.3518 68.0299 14.7966 71.8368C18.2414 75.6436 22.6616 78.4377 27.5798 79.9171C27.7244 79.9426 27.8722 79.9426 28.0167 79.9171C28.3524 79.912 28.6755 79.7886 28.929 79.5687C29.1825 79.3488 29.3501 79.0465 29.4024 78.7152C29.4546 78.3838 29.3881 78.0447 29.2145 77.7576C29.0409 77.4705 28.7715 77.2538 28.4536 77.1458C19.051 74.2228 13.1435 67.6553 10.8071 57.6523Z" fill="#EFEFCD"/>
<path d="M31.1699 80.5814C31.8413 80.5814 32.3856 80.0375 32.3856 79.3666C32.3856 78.6957 31.8413 78.1519 31.1699 78.1519C30.4985 78.1519 29.9542 78.6957 29.9542 79.3666C29.9542 80.0375 30.4985 80.5814 31.1699 80.5814Z" fill="#EFEFCD"/>
</g>
<defs>
<clipPath id="clip0_428_197">
<rect width="93.1905" height="95" fill="white" transform="translate(3 2)"/>
</clipPath>
</defs>
</svg>
