<svg width="80" height="80" viewBox="0 0 80 80" fill="none" xmlns="http://www.w3.org/2000/svg">
<g clip-path="url(#clip0_1178_400)">
<path d="M63.842 41.4354C55.2631 39.8176 47.5549 41.8883 44.1847 46.79C43.151 48.3714 42.6004 50.2213 42.6004 52.1124C42.6004 54.0034 43.151 55.8533 44.1847 57.4347C43.2849 59.1962 42.5351 61.0307 41.9432 62.9188C41.8676 63.1719 41.8946 63.4448 42.0184 63.678C42.1422 63.9112 42.3528 64.086 42.6043 64.1644C42.7005 64.1799 42.7984 64.1799 42.8946 64.1644C43.1088 64.1659 43.3176 64.0972 43.4894 63.9687C43.6611 63.8402 43.7863 63.659 43.846 63.4526C44.3533 61.829 44.9785 60.2447 45.7166 58.7127C45.776 58.8332 45.8597 58.94 45.9624 59.0263C46.0652 59.1126 46.1846 59.1766 46.3133 59.2142C47.6604 59.6095 49.0542 59.8217 50.4576 59.8451C56.4725 59.8451 58.1012 54.8625 59.4719 50.7049C60.5201 47.4695 61.5199 44.4767 64.0677 43.3119C64.2618 43.2239 64.4228 43.076 64.5272 42.8897C64.6316 42.7035 64.6741 42.4887 64.6483 42.2766C64.623 42.0676 64.5307 41.8726 64.3852 41.7208C64.2398 41.5691 64.0491 41.4689 63.842 41.4354ZM57.5691 50.1064C55.8597 55.3155 54.5213 59.4407 46.8615 57.3053H46.5874H46.4584C47.1006 56.1227 47.8339 54.9923 48.6515 53.9242C50.5044 53.3042 52.4939 53.2201 54.3923 53.6816C54.5194 53.7153 54.6519 53.7232 54.7821 53.7047C54.9123 53.6862 55.0375 53.6417 55.1503 53.5738C55.263 53.506 55.3611 53.4161 55.4386 53.3096C55.5161 53.203 55.5716 53.082 55.6017 52.9536C55.6652 52.6962 55.6245 52.4241 55.4885 52.1967C55.3525 51.9693 55.1323 51.8052 54.876 51.7403C53.5512 51.4261 52.1845 51.3277 50.8285 51.4491C52.5989 49.696 54.6412 48.2427 56.8756 47.1459C57.1128 47.0278 57.2936 46.82 57.3782 46.5683C57.4629 46.3165 57.4445 46.0414 57.3272 45.8032C57.2704 45.686 57.1911 45.5812 57.0938 45.4948C56.9965 45.4085 56.8831 45.3424 56.7601 45.3003C56.6372 45.2582 56.5071 45.2409 56.3775 45.2495C56.2479 45.2581 56.1212 45.2923 56.0048 45.3503C54.486 46.1028 53.044 47.0022 51.6993 48.0357L51.9412 46.968C51.9936 46.7085 51.9417 46.4387 51.7967 46.2175C51.6517 45.9963 51.4254 45.8415 51.1671 45.787C51.0399 45.7562 50.9077 45.7516 50.7787 45.7735C50.6496 45.7954 50.5264 45.8434 50.4163 45.9145C50.3063 45.9855 50.2117 46.0783 50.1385 46.1871C50.0652 46.2959 50.0146 46.4184 49.9899 46.5474L49.1998 50.2358C48.5441 50.8969 47.925 51.5936 47.3453 52.3227C47.2515 52.4199 47.1702 52.5286 47.1034 52.6462C46.4517 53.5067 45.8487 54.4033 45.2973 55.3316C44.7279 54.1618 44.4771 52.8617 44.5706 51.5632C44.6641 50.2647 45.0984 49.0142 45.8295 47.9386C48.4419 44.137 54.2633 42.3089 61.0683 43.0854C59.3955 45.1353 58.2 47.5339 57.5691 50.1064Z" fill="#B17F5E"/>
<path d="M40.25 49.9769C40.8817 48.9931 41.2243 47.8506 41.2386 46.6803C41.2529 45.5101 40.9382 44.3595 40.3306 43.3604C38.1697 39.8661 32.5257 38.119 25.9464 38.8955C25.7235 38.9144 25.5137 39.009 25.3515 39.1637C25.1894 39.3183 25.0847 39.5238 25.0546 39.7462C25.0246 39.9686 25.071 40.1946 25.1862 40.387C25.3014 40.5794 25.4785 40.7266 25.6884 40.8044C27.4461 41.5324 27.9137 43.3928 28.462 45.5606C29.2199 48.6181 30.1552 52.3227 35.4767 52.3227C36.2438 52.3157 37.0092 52.2508 37.7666 52.1285C38.0102 52.0887 38.2299 51.9585 38.3823 51.7637C38.5346 51.5689 38.6084 51.3238 38.589 51.077C39.1119 52.0282 39.5491 53.0244 39.8952 54.0536C39.9576 54.2527 40.0823 54.4263 40.2507 54.5487C40.4192 54.6711 40.6225 54.7357 40.8305 54.7331C40.9374 54.7488 41.0461 54.7488 41.153 54.7331C41.4035 54.6448 41.6096 54.4616 41.7272 54.2227C41.8447 53.9838 41.8644 53.7083 41.7819 53.4551C41.3759 52.2521 40.8632 51.0881 40.25 49.9769ZM37.4602 50.1549C31.8968 51.0447 31.2679 48.5372 30.3971 45.0752C30.1094 43.5336 29.5408 42.0584 28.72 40.7235C33.9125 40.7235 37.428 42.3413 38.6858 44.4281C39.0126 44.958 39.2119 45.557 39.2679 46.1775C39.3238 46.7981 39.235 47.4232 39.0083 48.0033C37.6398 46.1408 35.9328 44.5546 33.977 43.3281C33.7542 43.1883 33.4854 43.1421 33.2288 43.1996C32.9723 43.2572 32.7487 43.4137 32.6063 43.6355C32.467 43.859 32.421 44.1287 32.4783 44.386C32.5357 44.6434 32.6917 44.8677 32.9127 45.0105C35.043 46.3571 36.8405 48.1714 38.1697 50.3167C37.9603 50.1794 37.7066 50.1273 37.4602 50.1711V50.1549Z" fill="#B17F5E"/>
<path d="M79.3389 39.0411C77.7263 33.7188 72.5822 28.4126 63.3905 30.4671C62.5798 29.1607 61.68 27.912 60.6975 26.7302C56.6654 21.7077 50.9195 18.3644 44.5717 17.3474C44.9895 16.7018 45.2134 15.9493 45.2167 15.1796C45.2219 14.5643 45.0831 13.9564 44.8114 13.4048C44.5397 12.8532 44.1427 12.3732 43.6523 12.0036C43.162 11.6339 42.592 11.3849 41.9883 11.2766C41.3845 11.1683 40.7638 11.2036 40.1762 11.3798C39.5885 11.556 39.0503 11.8681 38.6048 12.2911C38.1593 12.714 37.819 13.2359 37.6113 13.8149C37.4036 14.3938 37.3342 15.0136 37.4088 15.6243C37.4834 16.235 37.6998 16.8197 38.0407 17.3312C34.2631 17.9634 30.6652 19.4029 27.4906 21.552C24.3161 23.7012 21.6391 26.5099 19.6412 29.7877C17.8267 32.5719 16.415 35.6002 15.4485 38.7823L6.93411 27.6361C6.83222 27.5308 6.70887 27.4489 6.5725 27.3958C6.43613 27.3428 6.28994 27.3199 6.14394 27.3287H0.99982C0.831739 27.3286 0.666415 27.3716 0.519619 27.4537C0.372823 27.5358 0.249453 27.6543 0.16128 27.7979C0.077775 27.943 0.0338135 28.1076 0.0338135 28.2751C0.0338135 28.4427 0.077775 28.6073 0.16128 28.7523L14.9164 59.6833C15.403 61.2474 16.1974 62.6975 17.2528 63.948C18.3081 65.1984 19.6028 66.2237 21.0603 66.9631C25.64 69.3897 31.9452 69.3897 39.3147 69.3897H40.3145C47.6356 69.3897 54.5374 69.3897 59.8105 67.0763C62.5745 65.9253 64.8858 63.8965 66.3899 61.301C77.9359 57.095 81.6932 46.7415 79.3389 39.0411ZM39.3631 15.1311C39.3631 14.7503 39.4756 14.3781 39.6865 14.0615C39.8973 13.745 40.197 13.4982 40.5477 13.3525C40.8983 13.2068 41.2842 13.1687 41.6564 13.243C42.0286 13.3172 42.3706 13.5006 42.6389 13.7698C42.9073 14.0391 43.0901 14.3821 43.1641 14.7555C43.2382 15.1289 43.2002 15.516 43.0549 15.8678C42.9097 16.2195 42.6637 16.5202 42.3481 16.7317C42.0326 16.9433 41.6616 17.0562 41.282 17.0562C40.7731 17.0562 40.285 16.8533 39.9251 16.4923C39.5652 16.1313 39.3631 15.6416 39.3631 15.1311ZM41.282 19.046C44.3784 19.0924 47.4333 19.767 50.2629 21.0292C53.0925 22.2914 55.6381 24.1151 57.7464 26.3905H24.8176C26.926 24.1151 29.4716 22.2914 32.3012 21.0292C35.1307 19.767 38.1857 19.0924 41.282 19.046ZM2.58015 29.2538H5.64405L14.7551 41.1603C14.0154 44.2272 13.6419 47.3715 13.6424 50.527C13.6424 51.2064 13.6424 51.8535 13.6424 52.4844L2.58015 29.2538ZM59.0204 65.1998C54.1827 67.3028 47.4259 67.3352 40.3145 67.3352H38.9922C32.042 67.3352 26.0915 67.3352 21.9795 65.216C20.7147 64.5715 19.5954 63.6732 18.6911 62.5768C17.7867 61.4803 17.1167 60.2092 16.7225 58.8421C15.9189 56.1464 15.5488 53.3395 15.6259 50.527C15.5432 43.5513 17.5058 36.705 21.2699 30.8392C21.8343 29.9818 22.431 29.2215 23.0599 28.3964H59.488C64.4029 34.7104 67.0251 42.5166 66.922 50.527C66.922 58.2112 64.4064 62.9188 59.0204 65.1998ZM66.1964 36.0807C67.8013 35.6973 69.4921 35.9602 70.906 36.8131C72.3199 37.6659 73.3443 39.0408 73.7594 40.6427C74.6401 43.224 74.6078 46.0308 73.668 48.5911C72.7282 51.1514 70.9382 53.3089 68.5991 54.7007C68.8105 53.3304 68.9183 51.946 68.9216 50.5593C68.939 45.5927 68.0141 40.6681 66.1964 36.0483V36.0807ZM67.6799 58.7289C67.8441 58.2509 67.984 57.765 68.0992 57.2729C71.2987 55.8671 73.8516 53.3019 75.2477 50.0899C76.6439 46.8779 76.7803 43.2556 75.6299 39.947C75.0285 37.8199 73.612 36.0182 71.6901 34.9359C69.7682 33.8537 67.4972 33.5789 65.3739 34.1717C65.0837 33.5246 64.7612 32.8937 64.4225 32.279C71.921 30.8877 76.1137 35.2556 77.436 39.6235C79.3711 45.965 76.5169 54.4257 67.6799 58.648V58.7289Z" fill="#B17F5E"/>
<path d="M32.8482 64.3424C31.0775 64.2552 29.3286 63.9119 27.6557 63.3232C27.534 63.2767 27.4043 63.2549 27.2741 63.259C27.144 63.2631 27.0159 63.2932 26.8974 63.3473C26.7789 63.4015 26.6723 63.4788 26.5838 63.5746C26.4953 63.6704 26.4266 63.7829 26.3818 63.9056C26.3351 64.0288 26.3131 64.16 26.317 64.2918C26.321 64.4235 26.3507 64.5532 26.4046 64.6734C26.4586 64.7936 26.5356 64.902 26.6312 64.9923C26.7269 65.0826 26.8394 65.1531 26.9623 65.1998C28.8211 65.8584 30.7661 66.24 32.7353 66.3322C32.9766 66.3013 33.1983 66.1832 33.359 66C33.5197 65.8169 33.6084 65.5813 33.6084 65.3373C33.6084 65.0933 33.5197 64.8577 33.359 64.6745C33.1983 64.4914 32.9766 64.3733 32.7353 64.3424H32.8482Z" fill="#B17F5E"/>
<path d="M19.996 45.787C20.0317 45.6494 20.0378 45.5057 20.014 45.3656C19.9901 45.2254 19.9368 45.0919 19.8576 44.974C19.7784 44.856 19.6751 44.7564 19.5546 44.6815C19.434 44.6067 19.299 44.5584 19.1584 44.5399C19.0179 44.5214 18.875 44.5331 18.7393 44.5743C18.6036 44.6154 18.4782 44.685 18.3714 44.7784C18.2645 44.8719 18.1787 44.9871 18.1196 45.1163C18.0605 45.2456 18.0295 45.386 18.0287 45.5282C16.916 53.9242 17.432 59.6833 23.6566 64.1968C23.824 64.3228 24.0277 64.3909 24.2371 64.3909C24.3953 64.391 24.5512 64.3528 24.6915 64.2796C24.8319 64.2064 24.9526 64.1003 25.0434 63.9703C25.1974 63.7572 25.2617 63.4919 25.2225 63.2316C25.1833 62.9713 25.0437 62.737 24.8337 62.5791C19.4316 58.6318 19.0446 53.633 19.996 45.787Z" fill="#B17F5E"/>
</g>
<defs>
<clipPath id="clip0_1178_400">
<rect width="80" height="58.125" fill="white" transform="translate(0 11.2)"/>
</clipPath>
</defs>
</svg>
