<svg width="80" height="80" viewBox="0 0 80 80" fill="none" xmlns="http://www.w3.org/2000/svg">
<g clip-path="url(#clip0_1178_356)">
<path d="M69.8942 48.8168C69.7689 47.7815 68.4685 46.5265 61.1986 45.5226C54.7278 44.7222 48.2119 44.3449 41.6921 44.3931C35.1671 44.3445 28.6459 44.7218 22.17 45.5226C14.8374 46.5579 13.584 47.8128 13.4743 48.8325C13.0356 50.2913 14.6024 53.1934 33.6545 66.4329C33.7063 67.2291 34.0592 67.9757 34.6413 68.5206C35.2235 69.0656 35.9911 69.368 36.7881 69.3663H45.1234C45.9128 69.3688 46.6741 69.073 47.255 68.5378C47.836 68.0027 48.1938 67.2678 48.2569 66.48C68.6408 54.9346 70.7873 51.0129 69.8942 48.8168ZM41.6921 45.9618C57.36 45.9618 67.2464 47.7344 68.3274 49.005C67.8887 49.5227 65.9616 50.1188 62.7654 50.6521C58.7857 49.5227 50.7638 48.8168 41.7235 48.8168C32.6831 48.8168 24.6455 49.5227 20.6659 50.6521C17.5323 50.1188 15.5425 49.5227 15.1038 49.005C16.1222 47.7344 25.9459 45.9618 41.6921 45.9618ZM47.9593 51.9384H46.3925H45.2644H38.0102H36.8821H35.3153H34.9393C31.555 51.8129 28.3588 51.609 25.5386 51.311C30.8981 50.662 36.2937 50.3581 41.6921 50.4011C47.0853 50.3585 52.4757 50.6624 57.83 51.311C55.0098 51.609 51.8135 51.8129 48.4293 51.9384H47.9593ZM16.4669 51.3423L17.407 51.609H17.1563L20.4935 52.1737L22.0603 52.409H22.3737L23.0161 52.4875L24.5828 52.6757H25.2096L27.027 52.8482H27.5911L29.6279 53.0051H30.1449L32.3384 53.1306H32.8711L35.1116 53.209H35.707H38.0102H45.0764H47.3795H47.9749L50.2154 53.1306H50.7481L52.9416 53.0051H53.4587L55.4955 52.8482H56.0595L58.018 52.8326H58.6447L60.2115 52.6443L60.8539 52.5659H61.1672L62.734 52.3306L66.0713 51.7659H65.8206C66.5111 51.5899 67.1911 51.3752 67.8574 51.1227C66.416 53.1463 61.5903 57.2405 47.1759 65.3819H34.6416C23.5644 57.5386 18.6447 53.4757 16.5296 51.3423H16.4669ZM45.1234 67.7976H36.7568C36.4411 67.7967 36.1332 67.7004 35.8732 67.5212C35.6132 67.3421 35.4133 67.0885 35.2996 66.7937H46.5805C46.4669 67.0885 46.267 67.3421 46.007 67.5212C45.747 67.7004 45.439 67.7967 45.1234 67.7976Z" fill="#2E4A33"/>
<path d="M11.8136 56.7856C8.02852 55.1757 4.96572 52.2302 3.20674 48.5085C1.44776 44.7868 1.11507 40.5479 2.27185 36.5968C2.50549 35.841 2.77742 35.0975 3.08657 34.3693C5.9737 34.7544 8.76648 35.6634 11.3279 37.0517C14.7259 38.9321 18.5384 39.9349 22.4207 39.9695C27.0191 39.8246 31.5661 38.9565 35.895 37.3968C36.0226 37.3604 36.138 37.2902 36.229 37.1936C36.32 37.0969 36.3833 36.9775 36.4121 36.8478C36.449 36.7193 36.451 36.5832 36.4179 36.4536C36.3849 36.3241 36.318 36.2056 36.2241 36.1105C24.3478 23.671 13.7564 26.1652 4.76303 31.3261C7.00137 28.1547 10.0472 25.6415 13.584 24.0475C19.4387 23.7569 25.2997 24.4732 30.9127 26.1652C34.1437 27.2135 37.5127 27.7739 40.9087 27.828C45.3741 27.828 51.2965 26.8397 60.7129 23.9063C60.8559 23.8674 60.9842 23.7871 61.0817 23.6755C61.1793 23.5639 61.2418 23.4259 61.2613 23.2789C61.2844 23.1327 61.2658 22.983 61.2076 22.847C61.1494 22.711 61.0539 22.5942 60.9323 22.5102C46.8312 12.9413 31.1633 6.32158 12.9103 22.6043C10.2042 23.8642 7.7469 25.6018 5.6561 27.7339C7.17347 25.2389 8.95415 22.9144 10.9675 20.8004C14.4458 16.8944 18.0337 12.8472 20.0705 5.77254C20.1117 5.6394 20.116 5.49753 20.0829 5.36213C20.0498 5.22674 19.9805 5.10291 19.8825 5.0039C19.7822 4.90293 19.6558 4.83187 19.5174 4.79863C19.3791 4.76539 19.2343 4.77129 19.0991 4.81566C4.96671 9.01968 -0.689375 18.3219 1.81748 33.3654C1.40442 34.2657 1.05368 35.1934 0.767734 36.1419C-0.500266 40.4542 -0.144861 45.0824 1.76665 49.1499C3.67816 53.2175 7.01306 56.4421 11.1398 58.213C11.2537 58.2347 11.3707 58.2347 11.4845 58.213C11.6326 58.2101 11.777 58.166 11.9015 58.0857C12.026 58.0053 12.1257 57.8919 12.1896 57.7581C12.2569 57.578 12.2557 57.3795 12.1864 57.2002C12.1171 57.0209 11.9844 56.8733 11.8136 56.7856ZM58.5977 22.9337C42.5225 27.7339 37.5558 26.4162 31.3357 24.6907C26.8612 23.3309 22.2228 22.5868 17.548 22.4788C25.5768 20.1591 34.0148 19.6237 42.2718 20.9102C42.4793 20.9371 42.689 20.8816 42.8559 20.7555C43.0229 20.6294 43.1338 20.4427 43.1649 20.2356C43.1875 20.0305 43.13 19.8245 43.0044 19.6608C42.8789 19.4971 42.695 19.3883 42.4912 19.3572C34.1588 18.049 25.6434 18.5411 17.5167 20.8004C26.9957 13.6159 38.9816 10.1491 58.5977 22.9337ZM34.2029 36.2988C21.5433 40.1891 16.9683 37.9773 12.0016 35.6399C10.4504 34.856 8.84255 34.19 7.19155 33.6477C10.2199 33.3303 13.2811 33.64 16.1849 34.5576C16.2678 34.5726 16.3527 34.5726 16.4356 34.5576C16.6433 34.5908 16.8558 34.5401 17.0262 34.4166C17.1966 34.293 17.3111 34.1067 17.3443 33.8987C17.3776 33.6907 17.3269 33.478 17.2035 33.3074C17.0801 33.1367 16.894 33.0222 16.6863 32.9889C13.4149 31.9459 9.95764 31.6195 6.54917 32.032C14.8061 27.6397 23.8621 26.0554 34.2029 36.2988ZM18.1277 6.79218C16.309 11.6604 13.4725 16.0834 9.80808 19.765C8.19432 21.488 6.69732 23.3169 5.32708 25.2397C5.92167 23.5599 6.75545 21.9749 7.80259 20.5337C7.92726 20.3673 7.98078 20.1581 7.9514 19.9522C7.92202 19.7462 7.81213 19.5604 7.64592 19.4356C7.4783 19.3148 7.27046 19.2636 7.06598 19.2929C6.8615 19.3221 6.67628 19.4295 6.54917 19.5925C4.7522 22.1858 3.49471 25.1146 2.85156 28.2045C2.44419 17.4277 7.4579 10.3844 18.1277 6.79218Z" fill="#2E4A33"/>
</g>
<defs>
<clipPath id="clip0_1178_356">
<rect width="80" height="70.3704" fill="white" transform="translate(0 4.79999)"/>
</clipPath>
</defs>
</svg>
