<svg width="80" height="80" viewBox="0 0 80 80" fill="none" xmlns="http://www.w3.org/2000/svg">
<g clip-path="url(#clip0_1178_340)">
<path d="M34.1012 64.6777C32.5684 64.9622 31.0138 65.1144 29.4546 65.1325C24.1124 65.1311 18.8831 63.6015 14.389 60.7258C9.89484 57.8501 6.32515 53.7493 4.10472 48.9115C1.8843 44.0736 1.10662 38.7025 1.86425 33.4372C2.62189 28.1719 4.88292 23.2342 8.37828 19.2118C11.8736 15.1893 16.4561 12.2514 21.5804 10.7477C26.7047 9.24397 32.155 9.2378 37.2827 10.7299C42.4105 12.222 46.9996 15.1495 50.5042 19.1641C54.0087 23.1787 56.281 28.1113 57.0506 33.3748C57.0781 33.5806 57.1863 33.7671 57.3517 33.8935C57.517 34.0199 57.726 34.0759 57.9327 34.0492C58.1389 34.0144 58.3239 33.9025 58.4498 33.7362C58.5757 33.57 58.633 33.3622 58.61 33.1553C57.798 27.5938 55.3983 22.3818 51.6964 18.1395C47.9945 13.8972 43.1463 10.8032 37.7288 9.2259C32.3114 7.64856 26.5528 7.65424 21.1385 9.24228C15.7242 10.8303 10.8822 13.9338 7.18876 18.1834C3.4953 22.4331 1.10596 27.6498 0.305096 33.2128C-0.495764 38.7758 0.325587 44.4508 2.6714 49.5623C5.0172 54.6738 8.78868 59.0066 13.5369 62.045C18.2852 65.0834 23.8103 66.6995 29.4546 66.7008C31.1012 66.6982 32.7447 66.5618 34.369 66.2931C34.5743 66.2548 34.7565 66.1384 34.8771 65.9686C34.9976 65.7988 35.047 65.5889 35.0148 65.3834C34.9873 65.1694 34.8757 64.9749 34.7044 64.8427C34.5332 64.7104 34.3163 64.6511 34.1012 64.6777Z" fill="#B17F5E"/>
<path d="M51.0337 34.0335C51.3148 34.0176 51.5891 33.941 51.8374 33.8088C52.0857 33.6766 52.3021 33.4922 52.4715 33.2683C52.641 33.0443 52.7593 32.7863 52.8184 32.5122C52.8775 32.2381 52.8758 31.9545 52.8135 31.6811C51.7512 27.3174 49.4758 23.3399 46.248 20.2043C43.0201 17.0687 38.9705 14.9018 34.563 13.9518C30.1554 13.0019 25.5683 13.3074 21.327 14.8332C17.0858 16.359 13.362 19.0435 10.5823 22.5791C7.80255 26.1148 6.07933 30.3585 5.61003 34.8242C5.14073 39.2899 5.94433 43.7969 7.92877 47.8288C9.91321 51.8608 12.9982 55.2546 16.8304 57.6216C20.6625 59.9885 25.0868 61.2327 29.5964 61.2118C30.8787 61.1983 32.1582 61.0882 33.4239 60.8825C47.2691 58.53 17.4995 36.1507 51.0337 34.0335ZM48.1985 26.49C48.516 26.49 48.8204 26.6156 49.0449 26.8391C49.2694 27.0627 49.3955 27.3658 49.3955 27.6819C49.3987 27.9221 49.3298 28.1577 49.1977 28.3587C49.0657 28.5596 48.8764 28.7168 48.6542 28.8102C48.4319 28.9035 48.1868 28.9287 47.95 28.8826C47.7133 28.8366 47.4958 28.7212 47.3252 28.5514C47.1546 28.3816 47.0388 28.165 46.9925 27.9293C46.9462 27.6936 46.9716 27.4495 47.0653 27.2282C47.1591 27.0069 47.3169 26.8185 47.5188 26.687C47.7206 26.5555 47.9573 26.4869 48.1985 26.49ZM36.5269 19.8876C36.935 19.8876 37.3339 20.0081 37.6732 20.2338C38.0126 20.4596 38.277 20.7804 38.4332 21.1558C38.5894 21.5312 38.6302 21.9443 38.5506 22.3428C38.471 22.7414 38.2745 23.1074 37.9859 23.3947C37.6973 23.6821 37.3297 23.8777 36.9294 23.957C36.5292 24.0363 36.1143 23.9956 35.7372 23.8401C35.3602 23.6846 35.038 23.4213 34.8112 23.0834C34.5845 22.7456 34.4635 22.3484 34.4635 21.942C34.4632 21.4078 34.672 20.8946 35.0454 20.511C35.4188 20.1275 35.9276 19.9039 36.4639 19.8876H36.5269ZM8.9624 40.1811C8.72252 40.1811 8.48803 40.1103 8.28858 39.9776C8.08913 39.8449 7.93368 39.6563 7.84189 39.4357C7.75009 39.215 7.72607 38.9722 7.77287 38.738C7.81967 38.5037 7.93518 38.2886 8.1048 38.1197C8.27441 37.9508 8.49052 37.8358 8.72579 37.7892C8.96106 37.7426 9.20492 37.7665 9.42653 37.8579C9.64815 37.9493 9.83757 38.1041 9.97084 38.3027C10.1041 38.5013 10.1752 38.7347 10.1752 38.9736C10.1752 39.2938 10.0475 39.601 9.82001 39.8275C9.59256 40.0539 9.28407 40.1811 8.9624 40.1811ZM13.8137 32.0574C13.8138 31.8179 13.8853 31.5839 14.0193 31.3849C14.1533 31.186 14.3436 31.0313 14.5662 30.9404C14.7887 30.8494 15.0334 30.8265 15.2691 30.8743C15.5047 30.9222 15.7208 31.0388 15.8898 31.2093C16.0588 31.3797 16.173 31.5963 16.218 31.8316C16.263 32.0669 16.2367 32.3102 16.1425 32.5305C16.0483 32.7509 15.8904 32.9384 15.6889 33.0692C15.4874 33.2 15.2514 33.2681 15.0108 33.265C14.8523 33.265 14.6953 33.2337 14.5491 33.1728C14.4028 33.1119 14.2701 33.0227 14.1587 32.9104C14.0474 32.7981 13.9595 32.6648 13.9003 32.5184C13.8411 32.372 13.8117 32.2153 13.8137 32.0574ZM16.2237 52.006C15.9838 52.006 15.7493 51.9352 15.5499 51.8025C15.3504 51.6698 15.195 51.4812 15.1032 51.2605C15.0114 51.0399 14.9873 50.7971 15.0341 50.5628C15.0809 50.3286 15.1964 50.1134 15.3661 49.9445C15.5357 49.7756 15.7518 49.6606 15.9871 49.614C16.2223 49.5674 16.4662 49.5914 16.6878 49.6828C16.9094 49.7742 17.0988 49.9289 17.2321 50.1275C17.3654 50.3261 17.4365 50.5596 17.4365 50.7984C17.4365 51.1187 17.3087 51.4258 17.0813 51.6523C16.8538 51.8788 16.5453 52.006 16.2237 52.006ZM19.0274 41.3887C18.7869 41.3918 18.5508 41.3237 18.3493 41.1929C18.1478 41.0621 17.9899 40.8746 17.8957 40.6542C17.8015 40.4339 17.7752 40.1906 17.8202 39.9553C17.8652 39.72 17.9795 39.5034 18.1484 39.333C18.3174 39.1625 18.5335 39.0459 18.7692 38.998C19.0048 38.9502 19.2495 38.9731 19.472 39.0641C19.6946 39.155 19.8849 39.3097 20.0189 39.5086C20.1529 39.7076 20.2244 39.9416 20.2245 40.1811C20.2245 40.4987 20.0989 40.8035 19.8748 41.0295C19.6508 41.2556 19.3463 41.3846 19.0274 41.3887ZM19.6259 25.8C19.2677 25.8 18.9174 25.6942 18.6196 25.4961C18.3217 25.2979 18.0895 25.0162 17.9524 24.6867C17.8153 24.3571 17.7794 23.9945 17.8493 23.6446C17.9192 23.2948 18.0918 22.9734 18.3451 22.7212C18.5984 22.469 18.9212 22.2972 19.2725 22.2276C19.6239 22.158 19.9881 22.1937 20.3191 22.3302C20.6501 22.4667 20.933 22.6979 21.132 22.9945C21.3311 23.2911 21.4373 23.6398 21.4373 23.9965C21.4373 24.4748 21.2465 24.9335 20.9068 25.2718C20.5671 25.61 20.1063 25.8 19.6259 25.8ZM22.9652 58.483C22.7286 58.4677 22.5017 58.3836 22.3126 58.2413C22.1235 58.0989 21.9804 57.9045 21.9011 57.682C21.8217 57.4596 21.8096 57.2189 21.8662 56.9897C21.9228 56.7604 22.0457 56.5528 22.2195 56.3923C22.3934 56.2318 22.6107 56.1256 22.8446 56.0868C23.0784 56.048 23.3186 56.0783 23.5353 56.1739C23.7521 56.2696 23.9359 56.4263 24.0642 56.6249C24.1924 56.8235 24.2593 57.0551 24.2567 57.2911C24.2573 57.4559 24.2235 57.6189 24.1575 57.7701C24.0915 57.9212 23.9948 58.057 23.8734 58.169C23.752 58.281 23.6087 58.3667 23.4523 58.4208C23.296 58.4748 23.1301 58.496 22.9652 58.483ZM26.7769 52.006C26.6071 52.0254 26.4351 52.0088 26.2722 51.9573C26.1093 51.9058 25.9591 51.8207 25.8316 51.7074C25.704 51.5941 25.602 51.4553 25.5321 51.3C25.4622 51.1447 25.4261 50.9764 25.4261 50.8063C25.4261 50.6361 25.4622 50.4678 25.5321 50.3125C25.602 50.1572 25.704 50.0184 25.8316 49.9051C25.9591 49.7918 26.1093 49.7067 26.2722 49.6552C26.4351 49.6037 26.6071 49.5872 26.7769 49.6065C27.0728 49.6402 27.3458 49.7812 27.544 50.0024C27.7422 50.2237 27.8518 50.5098 27.8518 50.8063C27.8518 51.1027 27.7422 51.3889 27.544 51.6101C27.3458 51.8313 27.0728 51.9723 26.7769 52.006ZM28.352 30.05C28.1109 30.0531 27.8742 29.9846 27.6724 29.8531C27.4705 29.7216 27.3126 29.5332 27.2189 29.3119C27.1252 29.0906 27.0998 28.8465 27.1461 28.6108C27.1924 28.3751 27.3082 28.1585 27.4788 27.9887C27.6493 27.8189 27.8669 27.7035 28.1036 27.6574C28.3403 27.6113 28.5855 27.6366 28.8077 27.7299C29.03 27.8233 29.2192 27.9805 29.3513 28.1814C29.4834 28.3824 29.5522 28.618 29.5491 28.8582C29.5533 29.0147 29.5265 29.1705 29.4702 29.3167C29.4139 29.4629 29.3292 29.5966 29.2209 29.7103C29.1127 29.8239 28.983 29.9151 28.8393 29.9788C28.6956 30.0425 28.5408 30.0773 28.3835 30.0814L28.352 30.05Z" fill="#B17F5E"/>
<path d="M80.0157 42.4238C80.0157 38.5501 69.2577 36.527 58.6414 36.527C48.0252 36.527 37.2672 38.5501 37.2672 42.4238C37.2672 42.4238 37.2672 42.5336 37.2672 42.5963V42.7845C37.2743 42.9249 37.3062 43.0629 37.3617 43.1922C39.8031 53.8566 42.6068 62.0116 45.9618 68.2847C46.3879 69.0741 46.9874 69.7576 47.7155 70.2843C48.4436 70.8111 49.2817 71.1675 50.1673 71.3272C53.2043 71.9093 56.2891 72.2086 59.3817 72.2211C61.72 72.2264 64.0545 72.0323 66.3595 71.6409C67.6514 71.4336 68.8699 70.9054 69.9023 70.1049C70.9347 69.3045 71.7478 68.2577 72.2662 67.0615C76.834 56.5383 79.5589 49.1517 79.9527 42.5336C79.9527 42.5336 80.0157 42.4395 80.0157 42.4238ZM70.8801 66.3714C70.4604 67.3257 69.8086 68.1608 68.9837 68.8015C68.1587 69.4422 67.1865 69.8683 66.1547 70.0412C60.9572 70.8519 55.6566 70.7404 50.4981 69.7119C49.8373 69.6042 49.21 69.3475 48.664 68.9616C48.118 68.5756 47.6679 68.0706 47.3479 67.4849C43.7928 60.4648 41.1465 53.024 39.4723 45.3408L40.9372 45.9054C44.8546 47.2122 48.9376 47.962 53.0655 48.1323H53.7271L55.4282 48.2264H56.1528C56.9403 48.2264 57.7279 48.2264 58.5312 48.2264H61.0986H61.7602L64.0126 48.1166H64.2646C65.1152 48.1166 65.9657 47.9755 66.8005 47.8814H66.9895C69.2676 47.6449 71.5258 47.2466 73.7468 46.6895C74.3453 46.5327 74.8966 46.3602 75.4321 46.172H75.6212C76.1107 46.0087 76.5894 45.8148 77.0545 45.5917L77.9681 45.1683C77.2908 50.8141 74.7706 57.4322 70.8801 66.3714ZM43.6779 45.1055C48.8576 43.7197 54.2083 43.0702 59.5708 43.1766C64.5997 43.0739 69.6216 43.6007 74.5186 44.7448C72.5937 45.3057 70.63 45.7251 68.6434 45.9995H68.5016L66.9265 46.1877H66.328L65.0679 46.3131H63.9653H63.0518H61.4766H60.8938C60.1378 46.3131 59.3187 46.3131 58.6099 46.3131H56.4363H55.2707H54.3256C54.0579 46.3131 53.8058 46.3131 53.5381 46.3131C50.397 46.1475 47.2767 45.7067 44.2134 44.9958L43.6779 45.1055ZM78.4249 42.4395C78.4249 42.9099 77.8578 43.4275 76.8497 43.9293C71.2326 42.257 65.3843 41.4841 59.5235 41.6396C51.9315 41.6396 45.001 42.6747 41.2522 44.3214C40.3218 44.0522 39.497 43.5047 38.8895 42.7531L38.795 42.3454C38.921 40.5889 46.6706 38.064 58.5942 38.064C70.5178 38.064 78.3619 40.6203 78.3934 42.3767L78.4249 42.4395Z" fill="#B17F5E"/>
</g>
<defs>
<clipPath id="clip0_1178_340">
<rect width="80" height="64.1584" fill="white" transform="translate(0 8)"/>
</clipPath>
</defs>
</svg>
