<svg width="100" height="100" viewBox="0 0 100 100" fill="none" xmlns="http://www.w3.org/2000/svg">
<g clip-path="url(#clip0_428_232)">
<path d="M70.0138 21.8797C73.5381 23.2911 74.4635 26.9766 75.4479 30.8581C76.8065 36.3275 78.3422 42.2085 87.2219 42.2085C88.5413 42.2003 89.8579 42.0888 91.1597 41.8753C91.4208 41.8337 91.6546 41.6905 91.8097 41.4773C91.9648 41.2641 92.0284 40.9982 91.9866 40.7383C91.9449 40.4783 91.8011 40.2455 91.5869 40.0911C91.3728 39.9367 91.1058 39.8733 90.8447 39.9149C80.1733 41.6008 78.8344 36.3667 77.2987 30.3092C76.4718 27.0746 75.6448 23.7812 73.3609 21.6052C82.7919 21.0955 90.569 23.6832 93.5814 28.5057C94.3605 29.7667 94.7828 31.214 94.8036 32.6944C94.8244 34.1748 94.4429 35.6333 93.6996 36.9156C91.1783 33.1872 87.8981 30.0281 84.0717 27.6431C83.9627 27.572 83.8403 27.5236 83.712 27.5009C83.5837 27.4782 83.4521 27.4816 83.3251 27.5109C83.1981 27.5402 83.0785 27.5948 82.9733 27.6715C82.8681 27.7481 82.7796 27.8452 82.7132 27.9568C82.5795 28.179 82.5376 28.4441 82.5964 28.6964C82.6551 28.9487 82.8099 29.1685 83.0282 29.3094C89.135 33.1251 93.6947 38.9631 95.9047 45.796C95.9676 45.9907 96.0913 46.1604 96.2577 46.2802C96.4242 46.4001 96.6247 46.464 96.8301 46.4625H97.1451C97.3909 46.3737 97.5922 46.1929 97.7061 45.9586C97.8201 45.7243 97.8378 45.455 97.7555 45.2079C97.0038 43.0007 96.0343 40.8732 94.8612 38.8563C96.0151 37.2057 96.666 35.2586 96.7358 33.2487C96.8057 31.2388 96.2915 29.2516 95.255 27.5255C91.5338 21.6444 81.7287 18.6059 70.2698 19.9585C70.0087 19.9247 69.7448 19.9956 69.5362 20.1555C69.3275 20.3154 69.1913 20.5513 69.1573 20.8113C69.1234 21.0712 69.1946 21.334 69.3552 21.5417C69.5158 21.7494 69.7527 21.8851 70.0138 21.9189V21.8797Z" fill="#EFEFCD"/>
<path d="M42.6265 80.8472C40.7104 81.2028 38.7671 81.393 36.8182 81.4157C30.1405 81.4139 23.6038 79.5019 17.9862 75.9073C12.3685 72.3126 7.90638 67.1866 5.13084 61.1394C2.35531 55.0921 1.38322 48.3781 2.33026 41.7965C3.2773 35.2149 6.10359 29.0428 10.4728 24.0147C14.842 18.9866 20.5701 15.3142 26.9755 13.4346C33.3808 11.555 40.1937 11.5473 46.6034 13.4124C53.013 15.2775 58.7495 18.9369 63.1301 23.9552C67.5108 28.9734 70.3512 35.1391 71.3132 41.7185C71.3475 41.9757 71.4829 42.2089 71.6895 42.3669C71.8962 42.5249 72.1574 42.5949 72.4158 42.5615C72.6735 42.518 72.9047 42.3781 73.0622 42.1703C73.2196 41.9626 73.2912 41.7027 73.2624 41.4441C72.2475 34.4923 69.2478 27.9773 64.6204 22.6744C59.993 17.3715 53.9328 13.5041 47.161 11.5324C40.3892 9.56071 33.191 9.56782 26.4231 11.5529C19.6552 13.5379 13.6027 17.4173 8.98589 22.7293C4.36907 28.0413 1.38238 34.5623 0.381309 41.516C-0.619767 48.4698 0.406923 55.5635 3.33918 61.9529C6.27144 68.3423 10.9858 73.7583 16.9211 77.5563C22.8565 81.3543 29.7628 83.3743 36.8182 83.376C38.8764 83.3727 40.9309 83.2023 42.9612 82.8663C43.2178 82.8185 43.4456 82.673 43.5963 82.4607C43.747 82.2485 43.8087 81.9861 43.7684 81.7293C43.734 81.4618 43.5945 81.2187 43.3805 81.0534C43.1664 80.888 42.8953 80.8139 42.6265 80.8472V80.8472Z" fill="#EFEFCD"/>
<path d="M63.7921 42.5419C64.1435 42.522 64.4863 42.4262 64.7968 42.261C65.1072 42.0958 65.3777 41.8652 65.5895 41.5853C65.8012 41.3054 65.9492 40.9829 66.023 40.6403C66.0968 40.2976 66.0948 39.9431 66.017 39.6013C64.689 34.1467 61.8447 29.1749 57.81 25.2554C53.7752 21.3359 48.7131 18.6272 43.2037 17.4398C37.6943 16.2524 31.9603 16.6342 26.6588 18.5415C21.3572 20.4488 16.7025 23.8044 13.2278 28.2239C9.7532 32.6435 7.59917 37.9482 7.01255 43.5303C6.42592 49.1124 7.43042 54.7461 9.91097 59.786C12.3915 64.826 16.2478 69.0683 21.038 72.027C25.8282 74.9856 31.3585 76.541 36.9955 76.5148C38.5984 76.4979 40.1978 76.3603 41.7799 76.1031C59.0865 73.1626 21.8744 45.1883 63.7921 42.5419ZM60.2481 33.1126C60.645 33.1126 61.0256 33.2695 61.3062 33.5489C61.5868 33.8283 61.7445 34.2073 61.7445 34.6024C61.7483 34.9026 61.6623 35.1971 61.4972 35.4483C61.3321 35.6996 61.0955 35.8961 60.8177 36.0127C60.5399 36.1294 60.2335 36.1609 59.9376 36.1033C59.6417 36.0457 59.3697 35.9015 59.1565 35.6893C58.9433 35.477 58.7985 35.2062 58.7407 34.9116C58.6828 34.617 58.7145 34.3119 58.8317 34.0353C58.9488 33.7587 59.1462 33.5231 59.3985 33.3588C59.6508 33.1944 59.9466 33.1087 60.2481 33.1126V33.1126ZM45.6586 24.8595C46.1687 24.8595 46.6674 25.0101 47.0916 25.2923C47.5157 25.5745 47.8463 25.9755 48.0415 26.4448C48.2367 26.914 48.2878 27.4304 48.1883 27.9286C48.0888 28.4267 47.8431 28.8843 47.4824 29.2434C47.1217 29.6026 46.6621 29.8472 46.1618 29.9463C45.6615 30.0454 45.1429 29.9945 44.6716 29.8001C44.2003 29.6058 43.7975 29.2766 43.514 28.8543C43.2306 28.432 43.0794 27.9355 43.0794 27.4275C43.0791 26.7598 43.34 26.1182 43.8068 25.6388C44.2736 25.1594 44.9095 24.8799 45.5799 24.8595H45.6586ZM11.203 50.2264C10.9032 50.2264 10.6101 50.1379 10.3607 49.9721C10.1114 49.8062 9.91712 49.5704 9.80237 49.2946C9.68763 49.0188 9.6576 48.7153 9.7161 48.4225C9.7746 48.1297 9.91899 47.8607 10.131 47.6496C10.343 47.4385 10.6132 47.2947 10.9073 47.2365C11.2013 47.1783 11.5062 47.2082 11.7832 47.3224C12.0602 47.4367 12.297 47.6301 12.4636 47.8784C12.6301 48.1266 12.7191 48.4184 12.7191 48.717C12.7191 49.1173 12.5593 49.5013 12.275 49.7843C11.9907 50.0674 11.6051 50.2264 11.203 50.2264V50.2264ZM17.2672 40.0718C17.2672 39.7724 17.3567 39.4798 17.5241 39.2312C17.6916 38.9826 17.9296 38.7891 18.2077 38.6755C18.4859 38.5618 18.7917 38.5331 19.0863 38.5929C19.3809 38.6528 19.651 38.7985 19.8622 39.0116C20.0735 39.2247 20.2163 39.4955 20.2725 39.7895C20.3288 40.0836 20.2959 40.3877 20.1782 40.6632C20.0604 40.9386 19.863 41.173 19.6111 41.3365C19.3592 41.5 19.0642 41.5852 18.7636 41.5813C18.5654 41.5813 18.3692 41.5421 18.1863 41.466C18.0035 41.3899 17.8377 41.2784 17.6985 41.138C17.5592 40.9976 17.4494 40.831 17.3754 40.648C17.3014 40.465 17.2646 40.2691 17.2672 40.0718V40.0718ZM20.2796 65.0075C19.9798 65.0075 19.6866 64.919 19.4373 64.7531C19.188 64.5873 18.9937 64.3515 18.879 64.0757C18.7642 63.7999 18.7342 63.4964 18.7927 63.2036C18.8512 62.9107 18.9956 62.6418 19.2076 62.4307C19.4196 62.2196 19.6898 62.0758 19.9838 62.0176C20.2779 61.9593 20.5828 61.9892 20.8598 62.1035C21.1368 62.2177 21.3736 62.4112 21.5402 62.6594C21.7067 62.9076 21.7957 63.1995 21.7957 63.498C21.7957 63.8984 21.6359 64.2823 21.3516 64.5654C21.0673 64.8485 20.6817 65.0075 20.2796 65.0075V65.0075ZM23.7842 51.7359C23.4836 51.7398 23.1886 51.6546 22.9367 51.4911C22.6848 51.3276 22.4874 51.0933 22.3696 50.8178C22.2519 50.5424 22.219 50.2383 22.2753 49.9442C22.3315 49.6501 22.4743 49.3793 22.6856 49.1662C22.8968 48.9531 23.1669 48.8074 23.4615 48.7476C23.7561 48.6877 24.0619 48.7165 24.3401 48.8301C24.6182 48.9438 24.8562 49.1372 25.0237 49.3858C25.1911 49.6345 25.2806 49.9271 25.2806 50.2264C25.2806 50.6234 25.1236 51.0044 24.8435 51.2869C24.5635 51.5695 24.1829 51.7308 23.7842 51.7359V51.7359ZM24.5324 32.25C24.0846 32.25 23.6468 32.1178 23.2745 31.8701C22.9021 31.6224 22.6119 31.2703 22.4405 30.8583C22.2692 30.4464 22.2243 29.9931 22.3117 29.5558C22.3991 29.1185 22.6147 28.7168 22.9314 28.4015C23.248 28.0862 23.6515 27.8715 24.0907 27.7845C24.5299 27.6975 24.9852 27.7422 25.3989 27.9128C25.8126 28.0834 26.1663 28.3724 26.415 28.7431C26.6638 29.1139 26.7966 29.5497 26.7966 29.9956C26.7966 30.5935 26.5581 31.1669 26.1335 31.5897C25.7088 32.0125 25.1329 32.25 24.5324 32.25V32.25ZM28.7065 73.1038C28.4107 73.0846 28.1271 72.9795 27.8907 72.8016C27.6543 72.6237 27.4755 72.3806 27.3763 72.1026C27.2772 71.8245 27.262 71.5236 27.3328 71.2371C27.4035 70.9506 27.5571 70.691 27.7744 70.4904C27.9918 70.2898 28.2634 70.1571 28.5557 70.1085C28.8481 70.06 29.1482 70.0979 29.4192 70.2174C29.6901 70.337 29.9199 70.5329 30.0802 70.7811C30.2405 71.0293 30.3242 71.3188 30.321 71.6139C30.3216 71.8198 30.2793 72.0237 30.1969 72.2126C30.1144 72.4015 29.9935 72.5713 29.8418 72.7113C29.6901 72.8513 29.5108 72.9584 29.3154 73.026C29.12 73.0935 28.9127 73.12 28.7065 73.1038V73.1038ZM33.4712 65.0075C33.2589 65.0317 33.0439 65.011 32.8403 64.9466C32.6366 64.8823 32.4489 64.7759 32.2895 64.6343C32.1301 64.4927 32.0025 64.3191 31.9151 64.125C31.8278 63.9309 31.7826 63.7206 31.7826 63.5078C31.7826 63.2951 31.8278 63.0848 31.9151 62.8907C32.0025 62.6965 32.1301 62.523 32.2895 62.3814C32.4489 62.2398 32.6366 62.1333 32.8403 62.069C33.0439 62.0047 33.2589 61.984 33.4712 62.0082C33.841 62.0503 34.1823 62.2265 34.43 62.503C34.6778 62.7796 34.8147 63.1372 34.8147 63.5078C34.8147 63.8784 34.6778 64.2361 34.43 64.5126C34.1823 64.7892 33.841 64.9653 33.4712 65.0075ZM35.4401 37.5626C35.1386 37.5664 34.8428 37.4807 34.5905 37.3164C34.3382 37.152 34.1408 36.9165 34.0236 36.6399C33.9065 36.3633 33.8748 36.0581 33.9326 35.7635C33.9905 35.4689 34.1353 35.1981 34.3485 34.9859C34.5617 34.7736 34.8336 34.6294 35.1295 34.5718C35.4254 34.5142 35.7319 34.5457 36.0097 34.6624C36.2875 34.7791 36.5241 34.9756 36.6891 35.2268C36.8542 35.478 36.9403 35.7725 36.9364 36.0727C36.9417 36.2684 36.9081 36.4632 36.8377 36.6459C36.7673 36.8287 36.6615 36.9958 36.5262 37.1378C36.3908 37.2798 36.2288 37.3939 36.0492 37.4735C35.8696 37.5531 35.676 37.5967 35.4794 37.6018L35.4401 37.5626Z" fill="#EFEFCD"/>
<path d="M100.02 53.0297C100.02 48.1877 86.5722 45.6588 73.3018 45.6588C60.0315 45.6588 46.584 48.1877 46.584 53.0297C46.584 53.0297 46.584 53.167 46.584 53.2454V53.4806C46.5929 53.6561 46.6329 53.8287 46.7021 53.9903C49.7539 67.3207 53.2585 77.5145 57.4523 85.3559C57.9849 86.3426 58.7342 87.197 59.6444 87.8554C60.5546 88.5138 61.6022 88.9594 62.7092 89.159C66.5054 89.8866 70.3614 90.2607 74.2272 90.2764C77.1501 90.283 80.0681 90.0404 82.9494 89.5511C84.5642 89.2921 86.0874 88.6317 87.3779 87.6312C88.6685 86.6306 89.6847 85.3222 90.3328 83.8269C96.0425 70.6729 99.4487 61.4397 99.9409 53.167C99.9409 53.167 100.02 53.0493 100.02 53.0297ZM88.6001 82.9643C88.0755 84.1571 87.2609 85.2011 86.2296 86.0019C85.1984 86.8028 83.9831 87.3354 82.6935 87.5515C76.1965 88.5649 69.5708 88.4255 63.1227 87.1399C62.2967 87.0052 61.5125 86.6844 60.8301 86.202C60.1476 85.7195 59.5849 85.0882 59.1849 84.3562C54.7411 75.581 51.4332 66.2801 49.3404 56.676L51.1715 57.3817C56.0682 59.0153 61.1721 59.9525 66.332 60.1654H67.1589L69.2853 60.283H70.191C71.1754 60.283 72.1599 60.283 73.164 60.283H76.3733H77.2002L80.0158 60.1458H80.3308C81.394 60.1458 82.4572 59.9694 83.5007 59.8518H83.737C86.5845 59.5561 89.4072 59.0582 92.1835 58.3619C92.9317 58.1659 93.6208 57.9502 94.2902 57.715H94.5265C95.1384 57.5108 95.7368 57.2686 96.3182 56.9897L97.4601 56.4604C96.6135 63.5176 93.4633 71.7903 88.6001 82.9643ZM54.5974 56.3819C61.0721 54.6496 67.7604 53.8378 74.4635 53.9707C80.7496 53.8423 87.0271 54.5009 93.1483 55.9311C90.7422 56.6322 88.2876 57.1563 85.8043 57.4993H85.6271L83.6582 57.7346H82.91L81.3349 57.8914H79.9567H78.8147H76.8458H76.1174C75.1723 57.8914 74.1485 57.8914 73.2625 57.8914H70.5454H69.0884H67.9071C67.5724 57.8914 67.2573 57.8914 66.9226 57.8914C62.9963 57.6844 59.096 57.1334 55.2668 56.2447V56.2447L54.5974 56.3819ZM98.0311 53.0493C98.0311 53.6374 97.3223 54.2844 96.0622 54.9117C89.0408 52.8213 81.7304 51.8552 74.4044 52.0496C64.9144 52.0496 56.2512 53.3434 51.5653 55.4018C50.4023 55.0652 49.3713 54.3809 48.6119 53.4414L48.4938 52.9317C48.6513 50.7361 58.3383 47.58 73.2428 47.58C88.1473 47.58 97.9524 50.7753 97.9917 52.9709L98.0311 53.0493Z" fill="#EFEFCD"/>
</g>
<defs>
<clipPath id="clip0_428_232">
<rect width="100" height="80.198" fill="white" transform="translate(0 10)"/>
</clipPath>
</defs>
</svg>
