<svg width="80" height="80" viewBox="0 0 80 80" fill="none" xmlns="http://www.w3.org/2000/svg">
<g clip-path="url(#clip0_1178_290)">
<path d="M76.9487 19.6165C59.8534 16.1737 44.5537 20.4891 37.9298 30.5637C33.6296 37.0527 33.7805 44.8745 38.1561 52.5534C36.278 56.4565 34.7232 60.5226 33.5089 64.7064C33.4523 64.9063 33.4728 65.1216 33.5659 65.3057C33.6591 65.4898 33.8175 65.6279 34.0068 65.6901C34.0816 65.7051 34.1584 65.7051 34.2331 65.6901C34.3958 65.6876 34.5535 65.631 34.6836 65.5283C34.8137 65.4257 34.9096 65.2824 34.9574 65.1189C37.1256 57.4462 40.6134 50.2566 45.2477 43.9067C49.3855 42.3731 53.8597 42.147 58.1182 43.2562C58.3121 43.3049 58.5164 43.2726 58.6881 43.166C58.8598 43.0595 58.9854 42.887 59.0386 42.685C59.0844 42.479 59.0516 42.2623 58.9472 42.0814C58.8428 41.9005 58.6753 41.7698 58.4803 41.7172C54.6966 40.7178 50.7365 40.7178 46.9527 41.7172C51.2205 36.5367 56.44 32.3167 62.2977 29.3104C62.4753 29.215 62.6107 29.0508 62.6754 28.8525C62.7401 28.6543 62.7292 28.4373 62.6448 28.2474C62.6013 28.1535 62.5407 28.0695 62.4663 28.0003C62.3919 27.9312 62.3053 27.8781 62.2114 27.8442C62.1174 27.8103 62.0181 27.7962 61.919 27.8028C61.8199 27.8094 61.723 27.8364 61.6338 27.8825C57.4991 30.0017 53.6609 32.7083 50.2269 35.9263L51.4642 29.8656C51.5002 29.6599 51.4591 29.4475 51.3493 29.2729C51.2396 29.0984 51.0699 28.9753 50.8757 28.9296C50.6818 28.887 50.4797 28.9264 50.3131 29.0392C50.1466 29.152 50.0289 29.3292 49.9855 29.5325L48.2956 37.8302C46.8531 39.3344 45.4929 40.9235 44.2217 42.5898C44.1215 42.6667 44.0432 42.7709 43.9954 42.8913C42.1316 45.4378 40.4664 48.1384 39.0162 50.9668C35.395 44.0653 35.4251 37.1797 39.1822 31.4522C45.2176 22.2819 58.933 18.1886 74.5798 20.7747C69.6307 24.281 67.5636 30.8969 65.5267 37.3225C62.1167 48.2697 58.8726 58.614 41.9886 53.6799C41.7966 53.6263 41.5922 53.6546 41.4199 53.7586C41.2476 53.8626 41.1212 54.0338 41.0682 54.2352C41.0409 54.3352 41.033 54.4399 41.0449 54.5432C41.0568 54.6465 41.0883 54.7463 41.1376 54.8365C41.1868 54.9268 41.2528 55.0057 41.3316 55.0686C41.4104 55.1316 41.5004 55.1773 41.5963 55.2029C44.2761 56.0462 47.053 56.5 49.8497 56.5515C61.1057 56.5515 64.0782 47.0322 66.9601 37.8143C69.2083 30.6272 71.3357 23.8526 77.0995 21.1079C77.2996 21.0847 77.4828 20.9789 77.6087 20.8138C77.7346 20.6487 77.793 20.4377 77.771 20.2273C77.749 20.0169 77.6484 19.8243 77.4913 19.6919C77.3343 19.5595 77.1337 19.4982 76.9336 19.5213L76.9487 19.6165Z" fill="#2E4A33"/>
<path d="M33.5088 44.8744C32.6266 42.1604 31.4893 39.5455 30.1139 37.0686C32.86 32.3882 33.1316 27.5492 30.6722 23.567C26.4927 16.5068 15.4026 12.9847 2.44162 14.6029C2.27448 14.6226 2.11836 14.7004 1.99808 14.824C1.87779 14.9476 1.80024 15.1099 1.77773 15.2852C1.7692 15.4498 1.80966 15.6131 1.89349 15.7524C1.97732 15.8918 2.10035 16.0002 2.24547 16.0626C6.44007 17.8554 7.52644 22.4088 8.67317 27.1685C10.182 33.5147 11.9172 40.6701 21.8605 40.6701C23.3467 40.659 24.8299 40.5263 26.2965 40.2734C26.3947 40.2579 26.4889 40.2222 26.5739 40.1684C26.6589 40.1145 26.733 40.0435 26.7918 39.9595C26.8507 39.8755 26.8932 39.7801 26.917 39.6788C26.9407 39.5775 26.9452 39.4722 26.9302 39.3691C26.8968 39.1625 26.7885 38.9777 26.6281 38.8534C26.4677 38.7291 26.2677 38.6751 26.0702 38.7027C13.5166 40.797 11.8719 33.9431 10.1368 26.7877C9.14091 22.7261 8.11489 18.4583 4.9614 15.9357C16.323 15.063 25.7684 18.2838 29.4048 24.4079C30.3704 26.0891 30.8669 28.022 30.8376 29.9859C30.8082 31.9497 30.2542 33.8653 29.2388 35.5138C26.3402 30.8242 22.5042 26.8556 17.9979 23.8843C17.8268 23.7766 17.6228 23.7428 17.4286 23.7902C17.2344 23.8375 17.0652 23.9623 16.9567 24.1381C16.849 24.315 16.8123 24.5295 16.8547 24.7347C16.8971 24.9399 17.0152 25.1191 17.1831 25.2329C24.2627 29.891 29.5524 37.0262 32.1207 45.3821C32.1709 45.5384 32.2662 45.6744 32.3933 45.771C32.5204 45.8677 32.673 45.9203 32.8298 45.9216C32.9095 45.9382 32.9916 45.9382 33.0713 45.9216C33.1679 45.8867 33.2567 45.8312 33.332 45.7584C33.4072 45.6857 33.4673 45.5973 33.5084 45.4989C33.5495 45.4005 33.5708 45.2942 33.5709 45.1867C33.5709 45.0792 33.5498 44.9729 33.5088 44.8744Z" fill="#2E4A33"/>
</g>
<defs>
<clipPath id="clip0_1178_290">
<rect width="75.7895" height="51.5789" fill="white" transform="translate(1.77777 14.2222)"/>
</clipPath>
</defs>
</svg>
