<svg width="100" height="100" viewBox="0 0 100 100" fill="none" xmlns="http://www.w3.org/2000/svg">
<g clip-path="url(#clip0_428_191)">
<path d="M96.1856 24.5207C74.8166 20.2171 55.6919 25.6114 47.4121 38.2047C42.0368 46.316 42.2254 56.0931 47.695 65.6918C45.3473 70.5707 43.4038 75.6533 41.8859 80.8831C41.8152 81.1329 41.8408 81.402 41.9573 81.6321C42.0737 81.8622 42.2717 82.0349 42.5083 82.1127C42.6018 82.1314 42.6978 82.1314 42.7913 82.1127C42.9945 82.1095 43.1917 82.0388 43.3543 81.9105C43.517 81.7822 43.6368 81.603 43.6966 81.3987C46.4069 71.8079 50.7666 62.8208 56.5595 54.8834C61.7317 52.9664 67.3244 52.6838 72.6476 54.0703C72.89 54.1311 73.1453 54.0907 73.3599 53.9576C73.5746 53.8244 73.7316 53.6089 73.7981 53.3563C73.8553 53.0988 73.8143 52.8279 73.6838 52.6018C73.5534 52.3757 73.3439 52.2122 73.1003 52.1466C68.3706 50.8973 63.4205 50.8973 58.6908 52.1466C64.0255 45.671 70.5499 40.3959 77.872 36.638C78.0939 36.5187 78.2632 36.3136 78.3441 36.0657C78.425 35.8179 78.4113 35.5467 78.3058 35.3092C78.2515 35.1919 78.1757 35.087 78.0827 35.0005C77.9897 34.914 77.8814 34.8477 77.764 34.8053C77.6466 34.7629 77.5224 34.7453 77.3985 34.7535C77.2747 34.7617 77.1535 34.7956 77.0421 34.8531C71.8737 37.5022 67.076 40.8854 62.7835 44.9079L64.3301 37.3321C64.3751 37.0749 64.3237 36.8094 64.1865 36.5912C64.0494 36.3731 63.8372 36.2192 63.5945 36.162C63.3521 36.1088 63.0995 36.1581 62.8913 36.2991C62.6831 36.4401 62.536 36.6615 62.4817 36.9156L60.3693 47.2877C58.5662 49.168 56.866 51.1544 55.277 53.2373C55.1517 53.3334 55.0539 53.4637 54.9941 53.6141C52.6643 56.7973 50.5829 60.1731 48.7701 63.7086C44.2435 55.0817 44.2812 46.4746 48.9775 39.3153C56.5218 27.8524 73.6661 22.7358 93.2245 25.9684C87.0383 30.3513 84.4543 38.6212 81.9082 46.6531C77.6457 60.3372 73.5906 73.2676 52.4856 67.0999C52.2456 67.033 51.9901 67.0683 51.7747 67.1983C51.5593 67.3283 51.4013 67.5423 51.3351 67.794C51.301 67.919 51.2911 68.05 51.306 68.1791C51.3209 68.3082 51.3603 68.4329 51.4218 68.5457C51.4834 68.6585 51.5659 68.7572 51.6644 68.8359C51.7629 68.9145 51.8754 68.9716 51.9952 69.0037C55.3449 70.0579 58.816 70.625 62.312 70.6895C76.382 70.6895 80.0975 58.7903 83.6999 47.2679C86.5102 38.284 89.1695 29.8158 96.3743 26.3849C96.6244 26.3559 96.8533 26.2237 97.0107 26.0173C97.1681 25.8109 97.2411 25.5472 97.2136 25.2842C97.186 25.0212 97.0603 24.7805 96.864 24.615C96.6677 24.4495 96.4169 24.3727 96.1668 24.4017L96.1856 24.5207Z" fill="#EFEFCD"/>
<path d="M41.886 56.0931C40.7832 52.7005 39.3616 49.4319 37.6423 46.3357C41.075 40.4853 41.4144 34.4366 38.3402 29.4587C33.1158 20.6335 19.2532 16.2308 3.05197 18.2537C2.84303 18.2782 2.64789 18.3755 2.49753 18.53C2.34718 18.6845 2.25023 18.8874 2.2221 19.1065C2.21144 19.3122 2.26201 19.5164 2.3668 19.6906C2.47158 19.8647 2.62537 20.0002 2.80678 20.0782C8.05003 22.3192 9.40799 28.011 10.8414 33.9606C12.7275 41.8934 14.8964 50.8376 27.3256 50.8376C29.1833 50.8237 31.0373 50.6579 32.8706 50.3418C32.9933 50.3224 33.1111 50.2778 33.2173 50.2105C33.3236 50.1431 33.4161 50.0544 33.4897 49.9494C33.5633 49.8444 33.6165 49.7252 33.6462 49.5985C33.6758 49.4719 33.6815 49.3403 33.6627 49.2114C33.621 48.9532 33.4856 48.7221 33.2851 48.5668C33.0846 48.4114 32.8346 48.3439 32.5877 48.3784C16.8957 50.9962 14.8398 42.4288 12.6709 33.4846C11.4261 28.4076 10.1436 23.0728 6.20169 19.9196C20.4037 18.8288 32.2105 22.8547 36.7559 30.5098C37.9629 32.6114 38.5836 35.0275 38.5469 37.4823C38.5102 39.9371 37.8177 42.3316 36.5484 44.3922C32.9252 38.5303 28.1302 33.5695 22.4973 29.8554C22.2835 29.7207 22.0284 29.6785 21.7856 29.7377C21.5429 29.7969 21.3315 29.9528 21.1959 30.1727C21.0612 30.3937 21.0153 30.6619 21.0683 30.9184C21.1214 31.1749 21.269 31.3988 21.4788 31.5411C30.3284 37.3637 36.9405 46.2827 40.1508 56.7277C40.2135 56.923 40.3326 57.093 40.4915 57.2138C40.6504 57.3347 40.8411 57.4004 41.0372 57.402C41.1368 57.4228 41.2394 57.4228 41.339 57.402C41.4599 57.3584 41.5708 57.289 41.6649 57.198C41.7589 57.1071 41.834 56.9966 41.8854 56.8736C41.9368 56.7506 41.9634 56.6177 41.9635 56.4834C41.9636 56.349 41.9372 56.2161 41.886 56.0931Z" fill="#EFEFCD"/>
</g>
<defs>
<clipPath id="clip0_428_191">
<rect width="94.7368" height="64.4737" fill="white" transform="translate(2.22217 17.7778)"/>
</clipPath>
</defs>
</svg>
