<svg width="100" height="100" viewBox="0 0 100 100" fill="none" xmlns="http://www.w3.org/2000/svg">
<g clip-path="url(#clip0_428_238)">
<path d="M54.8035 3.00311C60.2679 5.16797 65.2985 8.30287 69.6539 12.2575C70.4407 15.472 70.2994 18.8446 69.2465 21.9817C69.1548 22.2363 69.1676 22.5171 69.2822 22.7622C69.3968 23.0074 69.6038 23.1969 69.8576 23.2891C69.9723 23.3085 70.0893 23.3085 70.2039 23.2891C70.4157 23.2875 70.6218 23.2198 70.7934 23.0953C70.965 22.9708 71.0936 22.7958 71.1614 22.5945C71.9908 20.1107 72.2893 17.4795 72.0373 14.8724C75.1254 18.2947 77.5625 22.2552 79.2283 26.5578C79.3051 26.7497 79.4372 26.9144 79.6077 27.0308C79.7782 27.1473 79.9795 27.2102 80.1857 27.2115C80.3065 27.2381 80.4316 27.2381 80.5524 27.2115C80.6761 27.1641 80.7892 27.0925 80.8851 27.0008C80.9809 26.9092 81.0576 26.7993 81.1107 26.6776C81.1638 26.5559 81.1922 26.4248 81.1943 26.292C81.1964 26.1592 81.1721 26.0273 81.1228 25.904C79.9945 22.8639 78.4961 19.9751 76.6615 17.3034L79.8802 18.284H80.1857C80.4053 18.2808 80.6182 18.2079 80.7939 18.0757C80.9696 17.9436 81.099 17.7591 81.1635 17.5486C81.24 17.2912 81.2123 17.014 81.0865 16.777C80.9607 16.5399 80.7469 16.3621 80.4913 16.282L74.5837 14.4638C73.5852 13.3099 72.5243 12.2119 71.4058 11.1747C71.3031 11.0511 71.1789 10.9473 71.0391 10.8683C69.4916 9.42551 67.8442 8.0943 66.1094 6.88462C68.2544 5.87523 70.6392 5.4913 72.9915 5.77668C75.3438 6.06207 77.5685 7.00527 79.4116 8.49851C85.5229 13.5445 87.56 23.9224 84.9729 35.4035C82.4876 31.7876 78.0264 29.8673 73.6874 27.9878C65.6612 24.5353 58.7351 21.5526 63.5019 9.07052C63.5506 8.94595 63.574 8.81284 63.5706 8.67906C63.5671 8.54528 63.537 8.41354 63.4819 8.29165C63.4268 8.16976 63.3479 8.06017 63.2499 7.96938C63.1519 7.87859 63.0367 7.80844 62.9111 7.76307C62.7855 7.71385 62.6513 7.69016 62.5165 7.69336C62.3816 7.69656 62.2488 7.72659 62.1256 7.7817C62.0024 7.83682 61.8913 7.91592 61.7989 8.01443C61.7064 8.11293 61.6344 8.22887 61.587 8.35551C56.2294 22.6558 65.1112 26.476 72.954 29.8673C78.0468 32.0532 82.834 34.1165 84.4025 38.6313C84.4737 38.8287 84.6038 38.9993 84.7751 39.12C84.9464 39.2406 85.1506 39.3054 85.36 39.3055C85.5768 39.3011 85.7867 39.2274 85.9589 39.0951C86.1311 38.9628 86.2567 38.7789 86.3174 38.57C90.086 25.2912 87.886 12.8703 80.7561 6.92548C76.1523 3.10525 70.2854 2.63539 64.1538 5.51588C61.4206 3.8288 58.552 2.37329 55.5776 1.1645C55.4532 1.11352 55.32 1.08762 55.1856 1.08827C55.0512 1.08892 54.9183 1.1161 54.7944 1.16827C54.6705 1.22043 54.558 1.29656 54.4635 1.39231C54.3689 1.48806 54.2941 1.60155 54.2433 1.72629C54.1924 1.85104 54.1666 1.98461 54.1672 2.11937C54.1679 2.25413 54.195 2.38744 54.247 2.5117C54.299 2.63595 54.375 2.74871 54.4704 2.84355C54.5659 2.93838 54.6791 3.01342 54.8035 3.06439V3.00311Z" fill="#EFEFCD"/>
<path d="M35.3696 88.805C32.1102 89.1727 29.7676 86.7621 27.323 84.1267C23.4118 79.9388 18.9709 75.1788 9.96694 82.2268C9.76014 82.4019 9.62802 82.6498 9.59772 82.9195C9.56741 83.1893 9.64121 83.4604 9.80397 83.6773C9.97203 83.8878 10.2163 84.023 10.4834 84.0537C10.7505 84.0843 11.0189 84.0077 11.2299 83.8407C18.7672 77.9572 22.0469 81.4505 25.836 85.5159C27.574 87.7708 29.8806 89.5198 32.5176 90.5823C25.5508 94.8724 18.3802 96.1798 14.1837 93.7692C13.0953 93.1558 12.186 92.2674 11.5462 91.1921C10.9065 90.1169 10.5587 88.8924 10.5373 87.6405C14.0819 89.4352 17.9597 90.4718 21.9247 90.6844V90.6844C22.186 90.69 22.4391 90.5926 22.6296 90.413C22.82 90.2335 22.9327 89.9862 22.9433 89.7243C22.9515 89.5901 22.9333 89.4556 22.8896 89.3285C22.846 89.2013 22.7777 89.0841 22.6887 88.9835C22.5998 88.883 22.4919 88.801 22.3713 88.7423C22.2507 88.6836 22.1197 88.6493 21.9858 88.6415C15.5477 88.2489 9.45955 85.5692 4.81308 81.0828C4.71839 80.9871 4.60574 80.9111 4.48162 80.8592C4.3575 80.8074 4.22437 80.7807 4.08991 80.7807C3.95545 80.7807 3.82232 80.8074 3.6982 80.8592C3.57408 80.9111 3.46143 80.9871 3.36674 81.0828C3.27188 81.176 3.19653 81.2872 3.14508 81.41C3.09364 81.5328 3.06714 81.6646 3.06714 81.7978C3.06714 81.931 3.09364 82.0628 3.14508 82.1856C3.19653 82.3084 3.27188 82.4196 3.36674 82.5128C4.90824 83.9151 6.57942 85.1669 8.35763 86.2513C8.16587 88.0707 8.49751 89.907 9.31335 91.5433C10.1292 93.1796 11.3951 94.5475 12.9615 95.4853C14.8762 96.4897 17.0144 96.9888 19.1746 96.9357C25.2922 96.5722 31.1542 94.3489 35.9807 90.5619C36.1595 90.4293 36.2901 90.2418 36.3526 90.0278C36.4151 89.8139 36.4061 89.5853 36.327 89.377C36.2445 89.1952 36.1086 89.043 35.9375 88.9408C35.7664 88.8386 35.5683 88.7912 35.3696 88.805V88.805Z" fill="#EFEFCD"/>
<path d="M70.8965 42.2881C58.3072 42.2881 45.5549 44.6987 45.5549 49.3157V82.6762C45.5603 87.2835 47.3891 91.7002 50.6396 94.9562C53.8901 98.2121 58.2965 100.041 62.8906 100.041H78.9634C83.554 100.035 87.9551 98.2043 91.2012 94.9489C94.4473 91.6936 96.2733 87.28 96.2787 82.6762V49.3157C96.2584 44.6987 83.5061 42.2881 70.8965 42.2881ZM70.8965 44.331C86.2154 44.331 94.2213 47.5792 94.2213 49.3157C94.2213 50.0103 92.9583 50.9091 90.5341 51.7671C84.1383 50.0186 77.524 49.2067 70.8965 49.3565C64.269 49.2081 57.6549 50.0201 51.2588 51.7671C48.8347 50.9091 47.592 49.9898 47.592 49.3157C47.592 47.5792 55.5978 44.331 70.8965 44.331ZM74.9707 54.2186H73.341H70.9576H68.5742H66.9445H66.5167C62.7251 54.0703 58.9514 53.6194 55.2312 52.8703C60.4116 51.8599 65.6802 51.374 70.9576 51.4199C76.2416 51.3751 81.5169 51.861 86.7044 52.8703C82.9775 53.6206 79.1968 54.0715 75.3985 54.2186H74.9707ZM79.0449 97.9367H62.8703C58.8304 97.9314 54.9567 96.3238 52.0944 93.4648C49.2321 90.6058 47.6135 86.7275 47.592 82.6762V52.2574C48.6175 52.8842 49.7111 53.3914 50.8514 53.7692C50.8514 53.7692 50.8514 53.7692 50.8514 53.7692L51.6662 54.0756L52.0533 54.1982L53.3978 54.5659L53.907 54.6885L55.3534 55.0154H55.6182C57.3701 55.3627 59.3054 55.6487 61.3425 55.853H61.7702L63.461 56.0164H64.3166H65.8037H67.1278H68.3093H70.9372H73.5854H74.7466L76.1114 56.1185H77.6189H78.4745L80.1653 55.9551H80.5727C82.6098 55.7508 84.6469 55.4648 86.3377 55.1175H86.5618L88.0285 54.7906L88.5174 54.6681L89.8822 54.3003L90.1674 54.0756L90.9008 53.8509C92.0427 53.4772 93.1367 52.9698 94.1601 52.3392V82.6762C94.1387 86.717 92.5286 90.5861 89.6795 93.4433C86.8304 96.3006 82.9722 97.9152 78.943 97.9367H79.0449Z" fill="#EFEFCD"/>
<path d="M41.4808 75.3013H27.8933C24.5183 75.2959 21.283 73.949 18.8965 71.5556C16.5099 69.1623 15.1668 65.9178 15.1614 62.5332V37.2421C15.9768 37.7225 16.8449 38.1064 17.7485 38.3861C20.845 39.3306 24.035 39.9334 27.2618 40.1838H27.8322L29.3396 40.3064H30.1952H31.6212H32.4157H34.6565H36.8973H37.6917H39.1381H39.9733L41.5011 40.1838H42.0715C45.3256 39.9498 48.5436 39.3537 51.6663 38.4065V38.4065C52.5681 38.1222 53.4358 37.7385 54.2534 37.2625V41.8182C54.2534 42.0891 54.3607 42.3489 54.5517 42.5404C54.7427 42.732 55.0018 42.8396 55.2719 42.8396C55.5404 42.8344 55.7965 42.7251 55.9864 42.5346C56.1763 42.3442 56.2853 42.0874 56.2905 41.8182V34.4433C56.2905 30.3575 45.1272 28.3146 34.738 28.3146C24.3487 28.3146 13.2058 30.2349 13.2058 34.4433V62.5332C13.2112 66.4596 14.7689 70.2237 17.5375 73.0002C20.306 75.7766 24.0595 77.3388 27.9748 77.3442H41.4808C41.7493 77.339 42.0053 77.2297 42.1952 77.0392C42.3851 76.8488 42.4941 76.592 42.4993 76.3227C42.4993 76.0518 42.392 75.792 42.201 75.6005C42.01 75.4089 41.7509 75.3013 41.4808 75.3013ZM47.1439 37.4259C38.9074 38.774 30.5074 38.774 22.2709 37.4259V37.4259C30.5279 36.0776 38.948 36.0776 47.205 37.4259H47.1439ZM34.6972 30.3983C47.3272 30.3983 54.2126 33.0745 54.2126 34.4841C54.2126 35.0153 53.2144 35.7303 51.2792 36.4045C45.8802 34.9194 40.2942 34.2312 34.6972 34.3616C29.107 34.2311 23.5277 34.9194 18.1356 36.4045C16.2003 35.7303 15.2022 35.0153 15.2022 34.4841C15.1614 33.0745 22.0468 30.3983 34.6565 30.3983H34.6972Z" fill="#EFEFCD"/>
<path d="M22.597 27.0685C22.6952 27.1767 22.8147 27.2635 22.9479 27.3232C23.0811 27.383 23.2252 27.4145 23.3711 27.4158C23.5639 27.4142 23.7524 27.3577 23.9145 27.2529C24.0766 27.1481 24.2057 26.9993 24.2867 26.8239C24.3678 26.6484 24.3976 26.4534 24.3725 26.2617C24.3475 26.0699 24.2686 25.8892 24.1452 25.7406C22.1081 23.3096 23.0452 21.4709 24.1452 19.1216C25.2452 16.7723 26.8953 13.8101 24.1452 10.4597C23.965 10.2585 23.715 10.1337 23.4462 10.111C23.1775 10.0882 22.9102 10.1691 22.6989 10.3371C22.5109 10.5315 22.4058 10.7916 22.4058 11.0624C22.4058 11.3331 22.5109 11.5932 22.6989 11.7876C24.573 13.9735 23.86 15.6487 22.5359 18.1819C21.2118 20.7151 19.6432 23.5956 22.597 27.0685Z" fill="#EFEFCD"/>
<path d="M34.7585 25.2298C34.8491 25.3484 34.9665 25.4436 35.1012 25.5076C35.2358 25.5715 35.3837 25.6024 35.5326 25.5975C35.7722 25.5969 36.0035 25.5099 36.1844 25.3524C36.3851 25.1717 36.5095 24.921 36.5322 24.6515C36.5549 24.3819 36.4743 24.1139 36.3067 23.9019C32.864 19.8161 34.4936 16.7518 36.3067 13.095C38.1197 9.43819 40.3809 5.22982 36.3067 0.347285C36.1265 0.146035 35.8765 0.0213031 35.6077 -0.00147376C35.339 -0.0242506 35.0717 0.0566435 34.8603 0.224711C34.6582 0.405466 34.5344 0.65824 34.5154 0.929176C34.4963 1.20011 34.5836 1.46779 34.7585 1.67517C38.0178 5.51582 36.4289 8.6006 34.5751 12.1553C32.7214 15.7099 30.4398 20.1634 34.7585 25.2298Z" fill="#EFEFCD"/>
<path d="M45.2493 27.0684C45.3476 27.1767 45.467 27.2634 45.6002 27.3232C45.7334 27.3829 45.8775 27.4144 46.0234 27.4157C46.2163 27.4141 46.4047 27.3576 46.5668 27.2529C46.7289 27.1481 46.858 26.9993 46.9391 26.8238C47.0202 26.6483 47.0499 26.4534 47.0249 26.2616C46.9998 26.0698 46.921 25.8892 46.7975 25.7406C44.7604 23.3095 45.6975 21.4709 46.8994 19.1216C48.1013 16.7722 49.6495 13.81 46.7975 10.4597C46.6201 10.2539 46.3695 10.126 46.0993 10.1031C45.829 10.0802 45.5605 10.1642 45.3512 10.3371C45.1633 10.5315 45.0582 10.7916 45.0582 11.0623C45.0582 11.3331 45.1633 11.5932 45.3512 11.7875C47.2253 13.9735 46.5123 15.6486 45.1882 18.1818C43.8641 20.715 42.2955 23.5955 45.2493 27.0684Z" fill="#EFEFCD"/>
</g>
<defs>
<clipPath id="clip0_428_238">
<rect width="93.2584" height="100" fill="white" transform="translate(3)"/>
</clipPath>
</defs>
</svg>
