<svg width="80" height="80" viewBox="0 0 80 80" fill="none" xmlns="http://www.w3.org/2000/svg">
<circle cx="40" cy="40" r="35" stroke="#2E4A33" stroke-width="2" stroke-linejoin="round"/>
<path d="M67 41C67.5523 41 68 40.5523 68 40C68 39.4477 67.5523 39 67 39L67 41ZM45.3333 40C45.3333 37.0545 42.9455 34.6667 40 34.6667C37.0545 34.6667 34.6667 37.0545 34.6667 40C34.6667 42.9455 37.0545 45.3333 40 45.3333C42.9455 45.3333 45.3333 42.9455 45.3333 40ZM67 39L40 39L40 41L67 41L67 39Z" fill="#2E4A33"/>
<path d="M41 12C41 11.4477 40.5523 11 40 11C39.4477 11 39 11.4477 39 12L41 12ZM40 34.6667C37.0545 34.6667 34.6667 37.0545 34.6667 40C34.6667 42.9455 37.0545 45.3333 40 45.3333C42.9455 45.3333 45.3333 42.9455 45.3333 40C45.3333 37.0545 42.9455 34.6667 40 34.6667ZM39 12L39 40L41 40L41 12L39 12Z" fill="#2E4A33"/>
</svg>
