<svg width="80" height="80" viewBox="0 0 80 80" fill="none" xmlns="http://www.w3.org/2000/svg">
<g clip-path="url(#clip0_1178_369)">
<path d="M56.7172 33.8304C46.6458 33.8304 36.444 35.7589 36.444 39.4525V66.141C36.4483 69.8268 37.9114 73.3602 40.5118 75.9649C43.1122 78.5696 46.6373 80.0327 50.3126 80.0327H63.1708C66.8433 80.0284 70.3642 78.5634 72.9611 75.9591C75.5579 73.3549 77.0188 69.824 77.0231 66.141V39.4525C77.0068 35.7589 66.805 33.8304 56.7172 33.8304ZM56.7172 35.4648C68.9724 35.4648 75.3771 38.0633 75.3771 39.4525C75.3771 40.0082 74.3667 40.7273 72.4274 41.4137C67.3107 40.0149 62.0193 39.3653 56.7172 39.4852C51.4153 39.3665 46.124 40.016 41.0071 41.4137C39.0678 40.7273 38.0737 39.9918 38.0737 39.4525C38.0737 38.0633 44.4784 35.4648 56.7172 35.4648ZM59.9766 43.3749H58.6729H56.7661H54.8594H53.5557H53.2134C50.1802 43.2562 47.1612 42.8955 44.185 42.2962C48.3294 41.4879 52.5443 41.0991 56.7661 41.1359C60.9934 41.1 65.2136 41.4888 69.3636 42.2962C66.3821 42.8964 63.3576 43.2571 60.3188 43.3749H59.9766ZM63.236 78.3493H50.2963C47.0644 78.3451 43.9654 77.059 41.6756 74.7718C39.3857 72.4846 38.0909 69.382 38.0737 66.141V41.8059C38.8941 42.3073 39.7689 42.7131 40.6812 43.0153L41.3331 43.2605L41.6427 43.3585L42.7183 43.6527L43.1257 43.7508L44.2828 44.0123H44.4947C45.8962 44.2901 47.4444 44.5189 49.0741 44.6823H49.4163L50.7689 44.8131H51.4534H52.643H53.7023H54.6476H56.7498H58.8684H59.7973L60.8892 44.8948H62.0952H62.7797L64.1323 44.7641H64.4582C66.0879 44.6006 67.7176 44.3718 69.0702 44.094H69.2495L70.4229 43.8325L70.814 43.7344L71.9059 43.4403L72.134 43.2605L72.7207 43.0807C73.6343 42.7818 74.5095 42.3758 75.3282 41.8713V66.141C75.3111 69.3735 74.023 72.4688 71.7437 74.7546C69.4644 77.0404 66.3779 78.3322 63.1545 78.3493H63.236Z" fill="#2E4A33"/>
<path d="M33.1847 60.2411H22.3147C19.6146 60.2367 17.0264 59.1592 15.1172 57.2445C13.208 55.3299 12.1335 52.7343 12.1292 50.0265V29.7937C12.7815 30.178 13.476 30.4851 14.1989 30.7089C16.676 31.4645 19.228 31.9467 21.8095 32.1471H22.2658L23.4718 32.2451H24.1562H25.297H25.9326H27.7252H29.5179H30.1534H31.3105H31.9787L33.201 32.1471H33.6573C36.2605 31.9598 38.8349 31.4829 41.3331 30.7252C42.0546 30.4978 42.7487 30.1908 43.4027 29.81V33.4545C43.4027 33.6713 43.4886 33.8791 43.6414 34.0324C43.7942 34.1856 44.0015 34.2717 44.2176 34.2717C44.4324 34.2675 44.6372 34.1801 44.7891 34.0277C44.9411 33.8754 45.0283 33.6699 45.0324 33.4545V27.5546C45.0324 24.286 36.1018 22.6517 27.7904 22.6517C19.479 22.6517 10.5647 24.1879 10.5647 27.5546V50.0265C10.569 53.1677 11.8152 56.179 14.03 58.4002C16.2449 60.6213 19.2476 61.871 22.3799 61.8754H33.1847C33.3995 61.8712 33.6043 61.7837 33.7562 61.6314C33.9081 61.479 33.9953 61.2736 33.9995 61.0582C33.9995 60.8415 33.9136 60.6336 33.7608 60.4804C33.608 60.3271 33.4008 60.2411 33.1847 60.2411ZM37.7152 29.9407C31.126 31.0193 24.406 31.0193 17.8168 29.9407C24.4224 28.8621 31.1585 28.8621 37.7641 29.9407H37.7152ZM27.7578 24.3187C37.8618 24.3187 43.3702 26.4596 43.3702 27.5873C43.3702 28.0122 42.5716 28.5843 41.0234 29.1236C36.7042 27.9355 32.2354 27.385 27.7578 27.4893C23.2856 27.3849 18.8222 27.9355 14.5085 29.1236C12.9603 28.5843 12.1618 28.0122 12.1618 27.5873C12.1292 26.4596 17.6375 24.3187 27.7252 24.3187H27.7578Z" fill="#2E4A33"/>
<path d="M18.0776 21.6547C18.1561 21.7413 18.2517 21.8107 18.3583 21.8585C18.4648 21.9063 18.5801 21.9315 18.6968 21.9326C18.8511 21.9313 19.0018 21.8861 19.1315 21.8023C19.2612 21.7184 19.3645 21.5994 19.4293 21.459C19.4942 21.3187 19.518 21.1627 19.498 21.0093C19.4779 20.8559 19.4149 20.7113 19.3161 20.5924C17.6864 18.6476 18.4361 17.1767 19.3161 15.2972C20.1961 13.4178 21.5162 11.048 19.3161 8.36772C19.1719 8.20672 18.972 8.10694 18.757 8.08871C18.5419 8.07049 18.3281 8.13521 18.159 8.26966C18.0087 8.42517 17.9246 8.63325 17.9246 8.84985C17.9246 9.06644 18.0087 9.27452 18.159 9.43003C19.6583 11.1788 19.088 12.5189 18.0287 14.5455C16.9694 16.572 15.7145 18.8764 18.0776 21.6547Z" fill="#2E4A33"/>
<path d="M27.8068 20.1838C27.8792 20.2787 27.9732 20.3549 28.0809 20.406C28.1886 20.4572 28.3069 20.4819 28.426 20.478C28.6177 20.4775 28.8028 20.4079 28.9475 20.2819C29.1081 20.1373 29.2076 19.9368 29.2258 19.7212C29.2439 19.5055 29.1794 19.2911 29.0453 19.1215C26.2912 15.8529 27.5949 13.4014 29.0453 10.476C30.4957 7.55054 32.3047 4.18384 29.0453 0.277816C28.9011 0.116816 28.7012 0.0170302 28.4862 -0.00119122C28.2712 -0.0194127 28.0573 0.0453026 27.8882 0.179757C27.7265 0.32436 27.6275 0.52658 27.6123 0.743329C27.5971 0.960077 27.6668 1.17422 27.8068 1.34012C30.4143 4.41265 29.1431 6.88047 27.6601 9.72419C26.1771 12.5679 24.3518 16.1307 27.8068 20.1838Z" fill="#2E4A33"/>
<path d="M36.1996 21.6547C36.2781 21.7413 36.3737 21.8107 36.4803 21.8585C36.5868 21.9063 36.7021 21.9315 36.8188 21.9326C36.9731 21.9313 37.1239 21.8861 37.2535 21.8023C37.3832 21.7184 37.4865 21.5994 37.5513 21.459C37.6162 21.3186 37.64 21.1627 37.62 21.0093C37.5999 20.8559 37.5369 20.7113 37.4381 20.5924C35.8084 18.6476 36.5581 17.1767 37.5196 15.2972C38.4811 13.4178 39.7197 11.048 37.4381 8.36771C37.2962 8.20314 37.0957 8.10075 36.8795 8.08243C36.6633 8.06411 36.4485 8.1313 36.281 8.26965C36.1307 8.42515 36.0466 8.63324 36.0466 8.84983C36.0466 9.06642 36.1307 9.27451 36.281 9.43001C37.7803 11.1787 37.21 12.5189 36.1507 14.5454C35.0914 16.572 33.8365 18.8764 36.1996 21.6547Z" fill="#2E4A33"/>
</g>
<defs>
<clipPath id="clip0_1178_369">
<rect width="74.6067" height="80" fill="white" transform="translate(2.40002)"/>
</clipPath>
</defs>
</svg>
