<svg width="100" height="100" viewBox="0 0 100 100" fill="none" xmlns="http://www.w3.org/2000/svg">
<g clip-path="url(#clip0_428_254)">
<path d="M17.4416 13.7884C20.8142 14.6475 22.1512 17.9643 23.6879 21.7805C25.6835 26.7955 28.1181 32.8096 36.0606 32.8096C38.347 32.7874 40.6185 32.4376 42.8058 31.7706C43.2032 31.6456 43.5516 31.3992 43.8021 31.066C44.0526 30.7328 44.1927 30.3294 44.2027 29.9124C45.2926 31.4348 46.2538 33.0455 47.0764 34.7277C47.2438 35.0602 47.5006 35.3393 47.818 35.5335C48.1353 35.7277 48.5005 35.8292 48.8725 35.8266C49.1833 35.8309 49.4908 35.7625 49.7705 35.6268C50.244 35.3908 50.6046 34.9762 50.7729 34.4742C50.9413 33.9722 50.9038 33.4238 50.6685 32.9494C49.6214 30.8481 48.3927 28.8424 46.9966 26.9554C47.9107 24.9549 48.2475 22.7383 47.9689 20.5561C47.6903 18.374 46.8074 16.3135 45.4201 14.6076C40.4709 8.6135 29.4552 6.79529 17.4815 9.93219C17.0575 10.0428 16.6816 10.29 16.4119 10.6357C16.1421 10.9814 15.9935 11.4063 15.989 11.845C15.9845 12.2837 16.1242 12.7116 16.3868 13.0629C16.6493 13.4141 17.02 13.669 17.4416 13.7884ZM42.3468 17.1251C43.0539 17.9741 43.5595 18.9725 43.8256 20.0453C44.0918 21.1181 44.1115 22.2374 43.8834 23.319C40.9018 20.2801 37.3833 17.8209 33.5063 16.0661C33.014 15.8462 32.4547 15.8311 31.9514 16.0241C31.448 16.217 31.0418 16.6023 30.8222 17.0951C30.6025 17.5879 30.5874 18.1479 30.7801 18.6519C30.9729 19.1559 31.3577 19.5625 31.8499 19.7825C35.9868 21.628 39.6713 24.3555 42.6462 27.7746C42.3183 27.6949 41.9762 27.6949 41.6484 27.7746C31.6703 30.7916 29.8543 26.356 27.3997 20.222C26.4641 17.513 25.059 14.9902 23.2488 12.7694C32.7479 11.3908 39.553 13.7884 42.3468 17.1251Z" fill="#EFEFCD"/>
<path d="M74.2366 66.3763C92.9155 62.7999 101.257 52.8097 99.8802 44.7577C98.9223 39.363 93.1351 34.7676 82.3189 36.5458C82.0568 36.5878 81.8055 36.681 81.5795 36.8202C81.3534 36.9594 81.1569 37.1418 81.0013 37.3571C80.8456 37.5723 80.7338 37.8161 80.6723 38.0746C80.6107 38.333 80.6006 38.6011 80.6425 38.8635C80.6845 39.1259 80.7776 39.3774 80.9166 39.6038C81.0557 39.8301 81.2379 40.0268 81.4528 40.1827C81.6678 40.3385 81.9113 40.4505 82.1695 40.5121C82.4276 40.5737 82.6954 40.5838 82.9574 40.5419C90.002 39.383 95.2105 41.381 95.9489 45.5169C96.807 50.3721 91.0796 58.4042 75.9928 61.9807C78.388 54.7314 79.5812 47.1383 79.525 39.5029C79.525 38.973 79.3147 38.4648 78.9405 38.0901C78.5662 37.7154 78.0587 37.5049 77.5294 37.5049C77.0001 37.5049 76.4925 37.7154 76.1183 38.0901C75.744 38.4648 75.5338 38.973 75.5338 39.5029C75.5328 42.1735 75.3795 44.8419 75.0748 47.495C74.7773 47.2367 74.4101 47.0724 74.0195 47.0226C73.6289 46.9728 73.2323 47.0398 72.8796 47.2153L69.3873 48.9735C69.8275 45.6161 69.9744 42.2266 69.8263 38.8435L77.0305 29.7725C77.3049 29.3577 77.4148 28.8553 77.3388 28.3636C77.2628 27.8719 77.0063 27.4263 76.6195 27.1139C76.2326 26.8016 75.7433 26.645 75.2472 26.6748C74.7512 26.7046 74.2841 26.9186 73.9373 27.275L69.3673 33.0493C68.9118 29.3753 68.205 25.7371 67.252 22.16L74.3564 11.4906C74.5195 11.2734 74.6367 11.0252 74.7007 10.7612C74.7648 10.4972 74.7744 10.2228 74.729 9.95494C74.6835 9.68706 74.584 9.43128 74.4364 9.20323C74.2889 8.97519 74.0964 8.77967 73.8708 8.62864C73.6452 8.4776 73.3912 8.37423 73.1243 8.32483C72.8575 8.27543 72.5834 8.28104 72.3187 8.34133C72.0541 8.40162 71.8045 8.51532 71.5853 8.67547C71.3661 8.83562 71.1818 9.03885 71.0437 9.27275L65.7553 17.145C64.2378 12.3773 62.4317 7.70664 60.3472 3.15879C60.2384 2.92002 60.0838 2.70504 59.892 2.52612C59.7003 2.34719 59.4752 2.20783 59.2297 2.11599C58.9841 2.02415 58.7229 1.98163 58.461 1.99086C58.1991 2.00009 57.9415 2.06088 57.703 2.16977C57.4645 2.27866 57.2498 2.43351 57.0711 2.62549C56.8924 2.81746 56.7532 3.0428 56.6615 3.28863C56.4762 3.78511 56.4955 4.33494 56.7152 4.81716C58.5557 8.85741 60.181 12.9925 61.5845 17.2049L53.9812 12.5096C53.5404 12.3409 53.0542 12.334 52.6088 12.4902C52.1635 12.6464 51.7878 12.9556 51.5486 13.3628C51.3093 13.7701 51.2219 14.249 51.3019 14.7146C51.3819 15.1803 51.6242 15.6024 51.9856 15.9062L63.3606 22.9992C64.3757 26.7893 65.1095 30.6493 65.5557 34.5478L57.1941 29.9124C56.731 29.6474 56.1817 29.5775 55.6672 29.718C55.1526 29.8585 54.7148 30.1979 54.4502 30.6616C54.1855 31.1253 54.1157 31.6752 54.256 32.1904C54.3964 32.7057 54.7354 33.1439 55.1985 33.4089L65.8351 39.3031C65.9467 42.3875 65.7932 45.4759 65.3761 48.534L60.8661 44.3781C60.6715 44.1996 60.4435 44.0616 60.1953 43.972C59.947 43.8824 59.6836 43.843 59.42 43.856C59.1565 43.869 58.8981 43.9342 58.6599 44.0478C58.4217 44.1614 58.2084 44.3212 58.0323 44.5179C57.6785 44.9105 57.4946 45.4274 57.5208 45.9554C57.547 46.4835 57.7811 46.9796 58.172 47.3351L64.518 53.1494C62.6267 61.1125 58.6763 68.4374 53.0632 74.3884C52.8826 74.5807 52.7417 74.8069 52.6489 75.0539C52.556 75.301 52.513 75.564 52.5223 75.8278C52.5316 76.0916 52.593 76.351 52.7029 76.5909C52.8129 76.8308 52.9693 77.0465 53.163 77.2256C53.5341 77.5633 54.0185 77.7488 54.52 77.7451C54.7936 77.7442 55.0642 77.687 55.3148 77.577C55.5654 77.467 55.7907 77.3066 55.9768 77.1057C62.1355 70.6233 66.4609 62.6171 68.5092 53.9086L74.4961 50.8517C70.8042 73.0098 56.5356 89.5534 39.6527 89.5534C20.415 89.5534 4.66968 68.1745 3.91135 41.6008H48.0143C48.5436 41.6008 49.0512 41.3903 49.4254 41.0156C49.7997 40.6409 50.0099 40.1327 50.0099 39.6028C50.0099 39.0729 49.7997 38.5647 49.4254 38.19C49.0512 37.8153 48.5436 37.6048 48.0143 37.6048H2.09534C1.56607 37.6048 1.05848 37.8153 0.684232 38.19C0.309982 38.5647 0.0997314 39.0729 0.0997314 39.6028C0.0997314 68.7939 17.2021 92.6304 38.4953 93.5495H14.6477C14.1185 93.5495 13.6109 93.76 13.2366 94.1347C12.8624 94.5094 12.6521 95.0176 12.6521 95.5475C12.6521 96.0774 12.8624 96.5856 13.2366 96.9603C13.6109 97.335 14.1185 97.5455 14.6477 97.5455H64.8772C65.4065 97.5455 65.9141 97.335 66.2883 96.9603C66.6626 96.5856 66.8728 96.0774 66.8728 95.5475C66.8728 95.0176 66.6626 94.5094 66.2883 94.1347C65.9141 93.76 65.4065 93.5495 64.8772 93.5495H41.1095C55.2783 92.8502 67.5713 82.1008 74.2366 66.3763Z" fill="#EFEFCD"/>
<path d="M20.1956 72.9899C20.1956 74.2268 20.5619 75.4359 21.2482 76.4643C21.9346 77.4928 22.9101 78.2943 24.0515 78.7677C25.1928 79.241 26.4487 79.3649 27.6604 79.1236C28.8721 78.8823 29.985 78.2866 30.8586 77.412C31.7321 76.5374 32.327 75.4231 32.5681 74.21C32.8091 72.9968 32.6854 71.7394 32.2126 70.5967C31.7398 69.4539 30.9392 68.4772 29.912 67.79C28.8849 67.1029 27.6772 66.7361 26.4418 66.7361C24.7868 66.7414 23.2011 67.4019 22.0309 68.5736C20.8606 69.7453 20.2008 71.3329 20.1956 72.9899ZM28.6969 72.9899C28.6969 73.4364 28.5646 73.873 28.3168 74.2443C28.069 74.6155 27.7168 74.9049 27.3048 75.0758C26.8927 75.2467 26.4393 75.2914 26.0019 75.2043C25.5644 75.1172 25.1626 74.9021 24.8473 74.5864C24.5319 74.2706 24.3171 73.8683 24.2301 73.4304C24.1431 72.9924 24.1878 72.5384 24.3584 72.1259C24.5291 71.7133 24.8181 71.3607 25.189 71.1126C25.5598 70.8646 25.9958 70.7321 26.4418 70.7321C26.7379 70.7321 27.0312 70.7905 27.3048 70.904C27.5784 71.0175 27.827 71.1838 28.0364 71.3934C28.2458 71.6031 28.4119 71.852 28.5252 72.1259C28.6385 72.3998 28.6969 72.6934 28.6969 72.9899Z" fill="#EFEFCD"/>
</g>
<defs>
<clipPath id="clip0_428_254">
<rect width="100" height="95.5056" fill="white" transform="translate(0 2)"/>
</clipPath>
</defs>
</svg>
