<svg width="100" height="100" viewBox="0 0 100 100" fill="none" xmlns="http://www.w3.org/2000/svg">
<g clip-path="url(#clip0_428_227)">
<path d="M99.7062 75.2762C99.6151 75.1843 99.5068 75.1114 99.3875 75.0616C99.2682 75.0118 99.1402 74.9862 99.0109 74.9862C98.8816 74.9862 98.7536 75.0118 98.6343 75.0616C98.515 75.1114 98.4067 75.1843 98.3157 75.2762C96.7645 76.9167 95.0738 78.4192 93.2628 79.7665C93.4073 79.5784 93.4755 79.3425 93.4537 79.1062C93.4319 78.8698 93.3218 78.6504 93.1453 78.492C84.6846 70.6486 79.4359 75.8252 74.9706 80.4528C72.1112 83.296 69.4477 85.9824 65.9811 85.8255C65.7733 85.8173 65.5682 85.8756 65.3957 85.992C65.2231 86.1083 65.0921 86.2766 65.0215 86.4726C64.948 86.668 64.9388 86.8818 64.9952 87.0828C65.0515 87.2839 65.1705 87.4616 65.3348 87.5902C70.0311 91.5143 75.873 93.8057 81.9819 94.1198C84.3379 94.1672 86.6681 93.6211 88.7583 92.5315C90.6957 91.452 92.2696 89.8212 93.2806 87.8455C94.2917 85.8698 94.6944 83.6382 94.4379 81.4332C96.3295 80.045 98.0986 78.4968 99.7258 76.8057C99.8423 76.7145 99.9363 76.5976 100 76.4641C100.064 76.3306 100.097 76.1841 100.095 76.0361C100.093 75.888 100.057 75.7424 99.9894 75.6106C99.922 75.4788 99.825 75.3643 99.7062 75.2762V75.2762ZM87.8378 90.6491C82.8632 93.3355 75.4798 92.0217 68.5272 87.3353C71.5646 86.1303 74.2562 84.19 76.3611 81.6881C80.8656 77.2174 84.763 73.3546 91.8527 79.8646C91.9725 79.9741 92.1171 80.0527 92.2741 80.0937C92.431 80.1347 92.5956 80.1368 92.7536 80.0999C91.263 81.1506 89.6837 82.0692 88.0336 82.845C85.6711 82.5119 83.4545 81.5044 81.649 79.943C81.4506 79.8096 81.2104 79.7535 80.9735 79.7851C80.7367 79.8168 80.5196 79.9341 80.3631 80.1148C80.2066 80.2956 80.1215 80.5274 80.1239 80.7667C80.1263 81.0059 80.2159 81.236 80.376 81.4136C81.7274 82.597 83.2978 83.503 84.998 84.0803C81.9864 85.1108 78.8186 85.6085 75.6365 85.551C75.5081 85.5456 75.38 85.5666 75.26 85.6127C75.1401 85.6588 75.0308 85.7291 74.9391 85.8191C74.8473 85.9092 74.775 86.0171 74.7265 86.1362C74.678 86.2553 74.6544 86.3832 74.6572 86.5118C74.6519 86.6412 74.6728 86.7704 74.7187 86.8915C74.7646 87.0127 74.8344 87.1233 74.9241 87.2167C75.0137 87.3101 75.1213 87.3844 75.2403 87.4351C75.3594 87.4858 75.4875 87.5119 75.6169 87.5118H76.0869C78.1074 87.5119 80.1224 87.3016 82.0994 86.8843L80.9439 88.3157C80.8605 88.4157 80.7978 88.5313 80.7595 88.6557C80.7212 88.7802 80.7081 88.911 80.7208 89.0406C80.7336 89.1702 80.772 89.296 80.8339 89.4106C80.8957 89.5252 80.9797 89.6262 81.081 89.7079C81.2541 89.845 81.4675 89.9208 81.6882 89.9236C81.8357 89.9259 81.9818 89.8934 82.1145 89.8287C82.2472 89.7639 82.3628 89.6689 82.452 89.5511L85.3113 86.0412C86.3988 85.6928 87.4648 85.2803 88.5037 84.8059H88.6408C89.9923 84.1665 91.3008 83.4394 92.5577 82.6293C92.5758 84.2699 92.1456 85.8841 91.3137 87.2976C90.4818 88.7111 89.2799 89.87 87.8378 90.6491V90.6491Z" fill="#EFEFCD"/>
<path d="M87.3678 61.021C87.2111 59.7268 85.5856 58.1581 76.4983 56.9032C68.4098 55.9027 60.2649 55.4311 52.1152 55.4914C43.959 55.4306 35.8075 55.9022 27.7125 56.9032C18.5468 58.1974 16.9801 59.766 16.843 61.0406C16.2946 62.8641 18.2531 66.4917 42.0682 83.0411C42.1329 84.0364 42.574 84.9696 43.3017 85.6508C44.0294 86.332 44.9889 86.71 45.9851 86.7079H56.4043C57.391 86.711 58.3426 86.3412 59.0688 85.6723C59.795 85.0034 60.2423 84.0847 60.3212 83.0999C85.801 68.6682 88.4842 63.7661 87.3678 61.021ZM52.1152 57.4522C71.7 57.4522 84.058 59.668 85.4093 61.2563C84.861 61.9033 82.452 62.6485 78.4567 63.3151C73.4822 61.9033 63.4548 61.021 52.1544 61.021C40.8539 61.021 30.8069 61.9033 25.8324 63.3151C21.9154 62.6485 19.4282 61.9033 18.8798 61.2563C20.1528 59.668 32.4325 57.4522 52.1152 57.4522ZM59.9491 64.923H57.9906H56.5805H47.5128H46.1026H44.1442H43.6741C39.4438 64.7662 35.4485 64.5112 31.9233 64.1387C38.6227 63.3274 45.3672 62.9476 52.1152 63.0014C58.8567 62.9481 65.5946 63.3279 72.2875 64.1387C68.7623 64.5112 64.767 64.7662 60.5367 64.923H59.9491ZM20.5837 64.1779L21.7587 64.5112H21.4454L25.617 65.2171L27.5754 65.5113H27.9671L28.7701 65.6093L30.7286 65.8446H31.512L33.7838 66.0603H34.4889L37.0349 66.2564H37.6812L40.4231 66.4132H41.0889L43.8896 66.5113H44.6338H47.5128H56.3455H59.2245H59.9687L62.7693 66.4132H63.4352L66.1771 66.2564H66.8234L69.3694 66.0603H70.0744L72.5225 66.0407H73.3059L75.2644 65.8054L76.0674 65.7074H76.4591L78.4176 65.4132L82.5891 64.7073H82.2758C83.1389 64.4874 83.9889 64.219 84.8218 63.9034C83.02 66.4329 76.9879 71.5506 58.9699 81.7274H43.302C29.4556 71.9232 23.3059 66.8446 20.662 64.1779H20.5837ZM56.4043 84.747H45.946C45.5515 84.7459 45.1665 84.6254 44.8415 84.4015C44.5165 84.1776 44.2666 83.8606 44.1246 83.4921H58.2256C58.0836 83.8606 57.8337 84.1776 57.5087 84.4015C57.1837 84.6254 56.7988 84.7459 56.4043 84.747Z" fill="#EFEFCD"/>
<path d="M14.767 70.982C10.0357 68.9697 6.20719 65.2879 4.00846 60.6357C1.80973 55.9836 1.39387 50.685 2.83984 45.7461C3.13189 44.8013 3.4718 43.8719 3.85825 42.9617C7.46715 43.4431 10.9581 44.5793 14.1599 46.3147C18.4073 48.6652 23.173 49.9187 28.0259 49.9619C33.7739 49.7808 39.4577 48.6956 44.8688 46.7461C45.0283 46.7006 45.1726 46.6128 45.2863 46.492C45.4001 46.3712 45.4791 46.2219 45.5151 46.0598C45.5612 45.8991 45.5637 45.7291 45.5224 45.5671C45.4811 45.4051 45.3975 45.2571 45.2801 45.1382C30.4348 29.5888 17.1955 32.7065 5.95382 39.1577C8.75174 35.1935 12.5591 32.0519 16.9801 30.0594C24.2984 29.6962 31.6247 30.5915 38.6409 32.7065C42.6796 34.017 46.8909 34.7175 51.136 34.785C56.7176 34.785 64.1207 33.5497 75.8911 29.883C76.0699 29.8343 76.2303 29.734 76.3522 29.5944C76.4742 29.4549 76.5522 29.2824 76.5766 29.0986C76.6056 28.9159 76.5823 28.7288 76.5095 28.5588C76.4368 28.3887 76.3174 28.2428 76.1653 28.1378C58.539 16.1767 38.9542 7.90202 16.1379 28.2555C12.7553 29.8303 9.68365 32.0022 7.07016 34.6674C8.96686 31.5487 11.1927 28.6431 13.7094 26.0005C18.0572 21.118 22.5421 16.0591 25.0882 7.21572C25.1397 7.04929 25.1451 6.87196 25.1037 6.70271C25.0623 6.53347 24.9757 6.37868 24.8532 6.25492C24.7277 6.12871 24.5698 6.03988 24.3968 5.99833C24.2239 5.95678 24.0429 5.96415 23.8739 6.01962C6.20842 11.2746 -0.861688 22.9024 2.27188 41.7068C1.75556 42.8322 1.31713 43.9918 0.959698 45.1774C-0.625302 50.5678 -0.181046 56.353 2.20834 61.4374C4.59773 66.5219 8.76636 70.5526 13.9248 72.7664C14.0672 72.7934 14.2134 72.7934 14.3557 72.7664C14.5408 72.7627 14.7212 72.7075 14.8769 72.6071C15.0325 72.5067 15.1572 72.365 15.237 72.1977C15.3211 71.9726 15.3197 71.7244 15.233 71.5003C15.1464 71.2762 14.9805 71.0917 14.767 70.982V70.982ZM73.2472 28.6672C53.1532 34.6674 46.9448 33.0203 39.1696 30.8634C33.5766 29.1636 27.7785 28.2335 21.935 28.0986C31.971 25.1989 42.5186 24.5297 52.8398 26.1378C53.0991 26.1715 53.3612 26.102 53.57 25.9444C53.7787 25.7867 53.9173 25.5535 53.9562 25.2946C53.9844 25.0382 53.9125 24.7807 53.7556 24.5761C53.5986 24.3714 53.3688 24.2355 53.114 24.1965C42.6986 22.5613 32.0542 23.1764 21.8959 26.0005C33.7447 17.0199 48.727 12.6864 73.2472 28.6672ZM42.7537 45.3735C26.9291 50.2364 21.2104 47.4716 15.002 44.55C13.0631 43.57 11.0532 42.7376 8.98947 42.0597C12.7749 41.663 16.6015 42.0501 20.2311 43.197C20.3348 43.2157 20.4409 43.2157 20.5445 43.197C20.8042 43.2386 21.0698 43.1752 21.2828 43.0208C21.4958 42.8663 21.6389 42.6335 21.6804 42.3735C21.722 42.1134 21.6587 41.8475 21.5044 41.6342C21.3501 41.421 21.1176 41.2778 20.8579 41.2362C16.7686 39.9324 12.4471 39.5245 8.18649 40.0401C18.5077 34.5497 29.8277 32.5693 42.7537 45.3735ZM22.6597 8.49027C20.3863 14.5755 16.8407 20.1043 12.2601 24.7064C10.2429 26.86 8.37168 29.1462 6.65888 31.5497C7.40212 29.4499 8.44434 27.4686 9.75327 25.6672C9.9091 25.4591 9.97601 25.1977 9.93928 24.9403C9.90255 24.6828 9.76519 24.4506 9.55743 24.2946C9.3479 24.1435 9.0881 24.0796 8.83251 24.1161C8.57691 24.1527 8.34539 24.2869 8.18649 24.4907C5.94028 27.7323 4.36842 31.3933 3.56448 35.2556C3.05527 21.7847 9.32241 12.9806 22.6597 8.49027Z" fill="#EFEFCD"/>
</g>
<defs>
<clipPath id="clip0_428_227">
<rect width="100" height="87.963" fill="white" transform="translate(0 6)"/>
</clipPath>
</defs>
</svg>
