<svg xmlns="http://www.w3.org/2000/svg" xmlns:xlink="http://www.w3.org/1999/xlink" viewBox="0 0 36 38"><defs><style>.cls-1{fill:none;}.cls-2{clip-path:url(#clip-path);}.cls-3{fill:#8cb120;}.cls-4{fill:#205254;}.cls-5{fill:#fff;}</style><clipPath id="clip-path" transform="translate(-1)"><rect class="cls-1" width="38" height="38"/></clipPath></defs><title>Asset 1</title><g id="Layer_2" data-name="Layer 2"><g id="Layer_1-2" data-name="Layer 1"><g class="cls-2"><path class="cls-3" d="M30.8,34H25.53A5.67,5.67,0,0,0,28,29.32V9.55A1.55,1.55,0,0,0,26.45,8H10.55A1.55,1.55,0,0,0,9,9.55V29.32A5.68,5.68,0,0,0,11.47,34H7.2A1.14,1.14,0,0,0,6,35.06,3.15,3.15,0,0,0,9.32,38H28.68A3.15,3.15,0,0,0,32,35.06,1.14,1.14,0,0,0,30.8,34" transform="translate(-1)"/><path class="cls-3" d="M32.94,14H29v2.4h2.6a2.24,2.24,0,0,1,2.4,2v6.2a2.24,2.24,0,0,1-2.4,2H29V29h3.94A3.06,3.06,0,0,0,36,25.94V17.06A3.06,3.06,0,0,0,32.94,14" transform="translate(-1)"/><path class="cls-3" d="M12.5,0a.46.46,0,0,0-.5.42V4.58a.51.51,0,0,0,1,0V.42A.46.46,0,0,0,12.5,0" transform="translate(-1)"/><path class="cls-3" d="M16.5,0c-.28,0-.5.15-.5.33V5.67c0,.18.22.33.5.33s.5-.15.5-.33V.33c0-.18-.22-.33-.5-.33" transform="translate(-1)"/><path class="cls-3" d="M20.5,0a.5.5,0,0,0-.5.5v4a.5.5,0,0,0,1,0V.5a.5.5,0,0,0-.5-.5" transform="translate(-1)"/><path class="cls-4" d="M32.94,12H29V9.55A1.55,1.55,0,0,0,27.45,8H5.55A1.55,1.55,0,0,0,4,9.55V29.32A5.68,5.68,0,0,0,6.47,34H2.06A1.06,1.06,0,0,0,1,35.06,2.94,2.94,0,0,0,3.94,38H29.06A2.94,2.94,0,0,0,32,35.06,1.06,1.06,0,0,0,30.94,34H26.53A5.68,5.68,0,0,0,29,29.32V29h3.94A4.06,4.06,0,0,0,37,24.94V16.06A4.06,4.06,0,0,0,32.94,12m-2,23a.06.06,0,0,1,.06.06A1.94,1.94,0,0,1,29.06,37H3.94A1.94,1.94,0,0,1,2,35.06.06.06,0,0,1,2.06,35H30.94ZM28,12v2H22.5a.5.5,0,0,0,0,1H28v2H19.5a.5.5,0,0,0,0,1H28V29.32A4.69,4.69,0,0,1,23.31,34H9.68A4.69,4.69,0,0,1,5,29.32V9.55A.55.55,0,0,1,5.55,9H27.45a.55.55,0,0,1,.55.55Zm1,4.4h2.6a1.12,1.12,0,0,1,1.2,1v6.2a1.12,1.12,0,0,1-1.2,1H29Zm7,8.54A3.06,3.06,0,0,1,32.94,28H29V25.6h2.6a2.23,2.23,0,0,0,2.4-2V17.4a2.23,2.23,0,0,0-2.4-2H29V13h3.94A3.06,3.06,0,0,1,36,16.06Z" transform="translate(-1)"/><path class="cls-5" d="M19.5,14.25a.75.75,0,1,1-.75-.75.75.75,0,0,1,.75.75" transform="translate(-1)"/><path class="cls-5" d="M17,17.75a.75.75,0,1,1-.75-.75.75.75,0,0,1,.75.75" transform="translate(-1)"/></g></g></g></svg>